<!-- Generated by IcoMoon.io -->
<svg version="1.1" xmlns="http://www.w3.org/2000/svg" width="32" height="32" viewBox="0 0 32 32">
<title>bag</title>
<path d="M12.146 7.546c0.046-2.094 1.758-3.778 3.864-3.778s3.817 1.684 3.864 3.778h-7.727zM16 0.846c-3.717 0-6.735 2.993-6.777 6.7h-2.397c-0.827 0-1.524 0.617-1.624 1.438l-2.473 20.308c-0.119 0.974 0.642 1.833 1.624 1.833h23.292c0.982 0 1.742-0.859 1.624-1.833l-2.473-20.308c-0.1-0.821-0.797-1.438-1.624-1.438h-2.397c-0.042-3.707-3.060-6.7-6.777-6.7zM23.995 10.513l2.148 17.646h-20.286l2.148-17.646h15.99z"></path>
</svg>
