<!-- Generated by IcoMoon.io -->
<svg version="1.1" xmlns="http://www.w3.org/2000/svg" width="32" height="32" viewBox="0 0 32 32">
<title>behance</title>
<path d="M29.627 0.017c1.303 0 2.365 1.032 2.365 2.305v27.359c0 1.273-1.062 2.307-2.365 2.307h-27.247c-1.301 0-2.358-1.034-2.358-2.307v-27.359c0-1.273 1.057-2.305 2.358-2.305h27.247zM10.838 23.319c0.742 0 1.43-0.066 2.066-0.198 0.634-0.131 1.185-0.377 1.651-0.735 0.413-0.31 0.758-0.694 1.035-1.15 0.436-0.688 0.65-1.467 0.65-2.335 0-0.84-0.19-1.554-0.57-2.143-0.378-0.591-0.942-1.020-1.687-1.293 0.492-0.25 0.863-0.528 1.114-0.832 0.452-0.544 0.676-1.26 0.676-2.154 0-0.867-0.222-1.613-0.669-2.234-0.746-1.013-2.008-1.53-3.79-1.559h-7.067v14.633h6.59zM27.763 18.394c0.013-0.908-0.019-1.603-0.090-2.081-0.129-0.822-0.406-1.544-0.836-2.168-0.476-0.709-1.079-1.224-1.809-1.552-0.733-0.327-1.554-0.49-2.465-0.49-1.537 0-2.784 0.483-3.75 1.454-0.962 0.969-1.442 2.361-1.442 4.179 0 1.939 0.534 3.337 1.598 4.199 1.067 0.859 2.297 1.29 3.692 1.29 1.689 0 3.004-0.511 3.942-1.53 0.605-0.641 0.942-1.272 1.015-1.895h-2.797c-0.162 0.306-0.35 0.548-0.563 0.719-0.391 0.324-0.898 0.481-1.521 0.481-0.59 0-1.095-0.129-1.511-0.393-0.69-0.422-1.053-1.158-1.095-2.212h7.631zM10.764 16.878c0.627 0.006 1.116 0.088 1.463 0.248 0.62 0.282 0.931 0.807 0.931 1.567 0 0.901-0.321 1.508-0.961 1.827-0.355 0.174-0.847 0.257-1.482 0.257h-3.092v-3.9h3.141zM24.919 16.586c-0.051-0.728-0.294-1.28-0.732-1.656-0.434-0.378-0.977-0.568-1.624-0.568-0.705 0-1.249 0.203-1.635 0.601-0.389 0.398-0.631 0.938-0.73 1.623h4.722zM10.346 11.227c0.7 0 1.277 0.078 1.727 0.229 0.524 0.218 0.786 0.669 0.786 1.35 0 0.616-0.197 1.045-0.594 1.287s-0.911 0.363-1.547 0.363h-3.096v-3.228h2.723zM25.486 10.757v-1.464h-5.893v1.464h5.893z"></path>
</svg>
