<!-- Generated by IcoMoon.io -->
<svg version="1.1" xmlns="http://www.w3.org/2000/svg" width="32" height="32" viewBox="0 0 32 32">
<title>cart</title>
<path d="M10.191 16.429h15.95c0.31 0 0.573-0.221 0.617-0.519l1.162-7.92c0.053-0.364-0.238-0.689-0.617-0.689h-18.273c-0.379 0-0.67 0.325-0.617 0.689l1.162 7.92c0.044 0.298 0.307 0.519 0.617 0.519zM29.194 19.837h-22.056c-0.31 0-0.573-0.221-0.617-0.519l-2.161-14.737c-0.053-0.364 0.238-0.689 0.617-0.689h26.379c0.379 0 0.67 0.325 0.617 0.689l-2.161 14.737c-0.044 0.298-0.307 0.519-0.617 0.519z"></path>
<path d="M26.21 23.631l-2.34 2.343h-11.9l-2.824-2.665-2.412 0.727-2.784-19.264c-0.047-0.319-0.32-0.556-0.643-0.556h-2.634c-0.359 0-0.65-0.291-0.65-0.65v-2.218c0-0.359 0.291-0.65 0.65-0.65h5.674c0.323 0 0.596 0.237 0.643 0.556l2.986 20.647c0.047 0.319 0.32 0.556 0.643 0.556h16.347c0.359 0 0.65 0.291 0.65 0.65l1.128 1.403-2.534-0.878z"></path>
<path d="M26.454 24.857c-1.070 0-1.94 0.87-1.94 1.94s0.87 1.94 1.94 1.94c1.070 0 1.94-0.87 1.94-1.94s-0.87-1.94-1.94-1.94zM26.454 31.308c-2.487 0-4.51-2.023-4.51-4.51s2.023-4.51 4.51-4.51c2.487 0 4.51 2.023 4.51 4.51s-2.023 4.51-4.51 4.51z"></path>
<path d="M8.635 24.857c-1.070 0-1.94 0.87-1.94 1.94s0.87 1.94 1.94 1.94c1.070 0 1.94-0.87 1.94-1.94s-0.87-1.94-1.94-1.94zM8.635 31.308c-2.487 0-4.51-2.023-4.51-4.51s2.023-4.51 4.51-4.51c2.487 0 4.51 2.023 4.51 4.51s-2.023 4.51-4.51 4.51z"></path>
</svg>
