<!-- Generated by IcoMoon.io -->
<svg version="1.1" xmlns="http://www.w3.org/2000/svg" width="32" height="32" viewBox="0 0 32 32">
<title>clock</title>
<path d="M16 28.38c-6.729 0-12.388-5.658-12.388-12.388s5.658-12.388 12.388-12.388c6.729 0 12.388 5.658 12.388 12.388s-5.658 12.388-12.388 12.388zM16 0.018c-8.822 0-15.974 7.152-15.974 15.974s7.152 15.974 15.974 15.974c8.822 0 15.974-7.152 15.974-15.974s-7.152-15.974-15.974-15.974z"></path>
<path d="M17.435 13.771v-6.475c0-0.508-0.412-0.92-0.92-0.92h-1.738c-0.508 0-0.92 0.412-0.92 0.92v10.053c0 0.508 0.412 0.92 0.92 0.92h8.249c0.508 0 0.92-0.412 0.92-0.92v-1.738c0-0.508-0.412-0.92-0.92-0.92h-4.671c-0.508 0-0.92-0.412-0.92-0.92z"></path>
</svg>
