<!-- Generated by IcoMoon.io -->
<svg version="1.1" xmlns="http://www.w3.org/2000/svg" width="32" height="32" viewBox="0 0 32 32">
<title>dribbble</title>
<path d="M15.999 0.018c-8.822 0-15.981 7.159-15.981 15.981s7.159 15.981 15.981 15.981c8.805 0 15.981-7.159 15.981-15.981s-7.176-15.981-15.981-15.981zM26.554 7.384c1.907 2.323 3.051 5.287 3.085 8.493-0.451-0.087-4.957-1.005-9.498-0.433-0.104-0.225-0.191-0.468-0.295-0.711-0.277-0.658-0.589-1.334-0.901-1.976 5.027-2.045 7.315-4.992 7.609-5.373zM15.999 2.375c3.467 0 6.639 1.3 9.048 3.432-0.243 0.346-2.305 3.103-7.159 4.923-2.236-4.108-4.714-7.471-5.096-7.991 1.022-0.243 2.097-0.364 3.206-0.364zM10.192 3.658c0.364 0.485 2.791 3.865 5.061 7.887-6.378 1.698-12.012 1.664-12.618 1.664 0.884-4.229 3.744-7.748 7.557-9.551zM2.34 16.016v-0.416c0.589 0.017 7.211 0.104 14.022-1.941 0.399 0.763 0.763 1.543 1.109 2.323-0.173 0.052-0.364 0.104-0.537 0.156-7.037 2.271-10.781 8.476-11.093 8.996-2.166-2.409-3.501-5.616-3.501-9.117zM15.999 29.657c-3.155 0-6.066-1.075-8.372-2.877 0.243-0.503 3.016-5.841 10.712-8.528 0.035-0.017 0.052-0.017 0.087-0.035 1.924 4.975 2.704 9.152 2.912 10.348-1.647 0.711-3.449 1.092-5.339 1.092zM23.608 27.317c-0.139-0.832-0.866-4.819-2.652-9.724 4.281-0.676 8.025 0.433 8.493 0.589-0.589 3.796-2.773 7.072-5.841 9.134z"></path>
</svg>
