<!-- Generated by IcoMoon.io -->
<svg version="1.1" xmlns="http://www.w3.org/2000/svg" width="32" height="32" viewBox="0 0 32 32">
<title>email</title>
<path d="M1.024 4.013c0.011-0 0.023-0 0.034-0h29.876c0.011 0 0.023 0 0.034 0 0.561 0.015 1.009 0.361 1.009 0.785v22.402c0 0.424-0.448 0.77-1.009 0.785-0.011 0-29.933 0-29.944 0-0.561-0.015-1.009-0.361-1.009-0.785v-22.402c0-0.424 0.448-0.77 1.009-0.785zM3.593 13.783v10.624h24.806v-10.624l-12.145 7.012c-0.081 0.047-0.176 0.060-0.277 0.044-0.090 0.009-0.173-0.006-0.246-0.048l-12.138-7.008zM3.593 7.59v2.061l12.403 7.161 12.403-7.161v-2.061h-24.806z"></path>
</svg>
