<!-- Generated by IcoMoon.io -->
<svg version="1.1" xmlns="http://www.w3.org/2000/svg" width="32" height="32" viewBox="0 0 32 32">
<title>facebook</title>
<path d="M30.218 0.021h-28.436c-0.975 0-1.764 0.79-1.764 1.764v28.436c0 0.974 0.789 1.764 1.764 1.764h15.309v-12.378h-4.166v-4.824h4.166v-3.558c0-4.129 2.521-6.377 6.205-6.377 1.764 0 3.28 0.131 3.722 0.19v4.315l-2.555 0.001c-2.003 0-2.391 0.952-2.391 2.349v3.080h4.777l-0.622 4.824h-4.155v12.378h8.145c0.974 0 1.764-0.79 1.764-1.764v-28.436c0-0.974-0.79-1.764-1.764-1.764z"></path>
</svg>
