<!-- Generated by IcoMoon.io -->
<svg version="1.1" xmlns="http://www.w3.org/2000/svg" width="32" height="32" viewBox="0 0 32 32">
<title>github</title>
<path d="M16.001 0.021c-8.824 0-15.981 7.156-15.981 15.981 0 7.061 4.579 13.051 10.93 15.165 0.798 0.148 1.056-0.348 1.056-0.768v-2.975c-4.445 0.967-5.371-1.886-5.371-1.886-0.727-1.847-1.775-2.339-1.775-2.339-1.45-0.992 0.111-0.971 0.111-0.971 1.605 0.112 2.449 1.647 2.449 1.647 1.425 2.442 3.738 1.737 4.65 1.328 0.143-1.032 0.557-1.738 1.015-2.136-3.549-0.406-7.281-1.777-7.281-7.899 0-1.746 0.625-3.171 1.646-4.29-0.165-0.404-0.713-2.030 0.156-4.23 0 0 1.342-0.429 4.396 1.638 1.274-0.354 2.641-0.531 3.999-0.538 1.358 0.007 2.726 0.184 4.003 0.538 3.051-2.067 4.391-1.638 4.391-1.638 0.87 2.201 0.322 3.827 0.157 4.23 1.025 1.119 1.645 2.545 1.645 4.29 0 6.138-3.738 7.49-7.297 7.885 0.573 0.495 1.096 1.468 1.096 2.959v4.385c0 0.425 0.256 0.924 1.067 0.767 6.346-2.116 10.919-8.105 10.919-15.163 0-8.826-7.156-15.981-15.981-15.981z"></path>
</svg>
