<!-- Generated by IcoMoon.io -->
<svg version="1.1" xmlns="http://www.w3.org/2000/svg" width="32" height="32" viewBox="0 0 32 32">
<title>google</title>
<path d="M16.275 13.962v4.899h8.104c-0.327 2.101-2.45 6.165-8.104 6.165-4.879 0-8.86-4.040-8.86-9.023 0-4.981 3.981-9.023 8.86-9.023 2.776 0 4.634 1.184 5.695 2.205l3.879-3.736c-2.491-2.327-5.716-3.736-9.574-3.736-7.9 0-14.29 6.39-14.29 14.29s6.39 14.29 14.29 14.29c8.247 0 13.72-5.798 13.72-13.963 0-0.939-0.104-1.654-0.227-2.368h-13.494z"></path>
</svg>
