<!-- Generated by IcoMoon.io -->
<svg version="1.1" xmlns="http://www.w3.org/2000/svg" width="32" height="32" viewBox="0 0 32 32">
<title>hamburger</title>
<path d="M30.939 17.785h-29.876c-0.579 0-1.048-0.469-1.048-1.048v-1.482c0-0.579 0.469-1.048 1.048-1.048h29.876c0.579 0 1.048 0.469 1.048 1.048v1.482c0 0.579-0.469 1.048-1.048 1.048z"></path>
<path d="M30.939 27.979h-29.876c-0.579 0-1.048-0.469-1.048-1.048v-1.482c0-0.579 0.469-1.048 1.048-1.048h29.876c0.579 0 1.048 0.469 1.048 1.048v1.482c0 0.579-0.469 1.048-1.048 1.048z"></path>
<path d="M30.939 7.584h-29.876c-0.579 0-1.048-0.469-1.048-1.048v-1.482c0-0.579 0.469-1.048 1.048-1.048h29.876c0.579 0 1.048 0.469 1.048 1.048v1.482c0 0.579-0.469 1.048-1.048 1.048z"></path>
</svg>
