<!-- Generated by IcoMoon.io -->
<svg version="1.1" xmlns="http://www.w3.org/2000/svg" width="32" height="32" viewBox="0 0 32 32">
<title>home</title>
<path d="M11.42 29.663c0 0.829-0.672 1.501-1.501 1.501-1.865 0-4.805 0-4.805 0-0.814 0-1.474-0.66-1.474-1.474v-13.912c0-0.531 0.286-1.021 0.748-1.283 2.293-1.299 9.187-5.205 11.108-6.294 0.311-0.177 0.693-0.177 1.004 0 1.922 1.089 8.815 4.994 11.108 6.294 0.462 0.262 0.747 0.752 0.747 1.283v13.912c0 0.814-0.66 1.474-1.474 1.474h-4.805c-0.829 0-1.501-0.672-1.501-1.501 0-2.012 0-5.562 0-7.581 0-0.838-0.679-1.517-1.517-1.517-1.696 0-4.426 0-6.122 0-0.838 0-1.517 0.679-1.517 1.517v7.581zM26.551 6.678l4.903 2.831c0.501 0.29 0.673 0.93 0.384 1.432l-0.741 1.284c-0.289 0.501-0.93 0.673-1.431 0.383 0 0-10.704-6.18-13.131-7.581-0.301-0.173-0.671-0.173-0.971 0-2.427 1.402-13.132 7.582-13.132 7.582-0.501 0.289-1.142 0.117-1.432-0.384l-0.741-1.284c-0.289-0.501-0.117-1.142 0.384-1.432l14.783-8.535c0.196-0.113 0.414-0.156 0.623-0.136 0.209-0.020 0.427 0.023 0.623 0.136l6.302 3.638v-2.352c0-0.579 0.469-1.048 1.048-1.048h1.483c0.579 0 1.048 0.469 1.048 1.048v4.418z"></path>
</svg>
