<!-- Generated by IcoMoon.io -->
<svg version="1.1" xmlns="http://www.w3.org/2000/svg" width="32" height="32" viewBox="0 0 32 32">
<title>info</title>
<path d="M15.992 0.010c-8.826 0-15.992 7.166-15.992 15.992s7.166 15.993 15.992 15.993 15.992-7.166 15.992-15.993c0-8.826-7.166-15.992-15.992-15.992zM18.144 12.285v11.431c0 1.018 0.118 1.669 0.355 1.952s0.699 0.445 1.388 0.486v0.555h-7.79v-0.555c0.638-0.021 1.111-0.206 1.419-0.555 0.206-0.236 0.309-0.864 0.309-1.882v-8.423c0-1.018-0.118-1.669-0.355-1.952s-0.694-0.445-1.373-0.486v-0.571h6.047zM15.992 5.296c1.315 0 2.383 1.068 2.383 2.384s-1.068 2.383-2.383 2.383c-1.315 0-2.383-1.068-2.383-2.383s1.068-2.384 2.383-2.384z"></path>
</svg>
