<!-- Generated by IcoMoon.io -->
<svg version="1.1" xmlns="http://www.w3.org/2000/svg" width="32" height="32" viewBox="0 0 32 32">
<title>instagram</title>
<path d="M24.544 5.541c-1.061 0-1.922 0.86-1.922 1.92s0.86 1.92 1.922 1.92c1.060 0 1.919-0.86 1.919-1.92s-0.859-1.92-1.919-1.92zM16.001 21.337c-2.946 0-5.334-2.387-5.334-5.334 0-2.946 2.388-5.334 5.334-5.334s5.334 2.388 5.334 5.334c0 2.947-2.388 5.334-5.334 5.334zM16.001 7.785c-4.538 0-8.217 3.679-8.217 8.217s3.679 8.219 8.217 8.219c4.538 0 8.217-3.679 8.217-8.219 0-4.538-3.679-8.217-8.217-8.217zM16.001 0c-4.346 0-4.89 0.018-6.597 0.096-5.812 0.267-9.042 3.491-9.308 9.308-0.079 1.708-0.097 2.252-0.097 6.598s0.019 4.891 0.096 6.598c0.267 5.812 3.491 9.041 9.308 9.308 1.708 0.077 2.252 0.096 6.598 0.096s4.892-0.019 6.598-0.096c5.806-0.267 9.044-3.491 9.307-9.308 0.079-1.707 0.097-2.252 0.097-6.598s-0.019-4.89-0.096-6.597c-0.261-5.806-3.49-9.041-9.307-9.308-1.708-0.079-2.254-0.097-6.6-0.097zM16.001 2.884c4.273 0 4.779 0.016 6.468 0.093 4.337 0.197 6.362 2.255 6.56 6.56 0.077 1.687 0.092 2.194 0.092 6.466 0 4.274-0.016 4.779-0.092 6.466-0.199 4.301-2.219 6.362-6.56 6.56-1.688 0.077-2.192 0.093-6.468 0.093-4.273 0-4.779-0.016-6.466-0.093-4.347-0.199-6.362-2.266-6.56-6.561-0.077-1.687-0.093-2.192-0.093-6.466 0-4.273 0.017-4.778 0.093-6.466 0.199-4.303 2.219-6.362 6.56-6.56 1.688-0.076 2.194-0.092 6.466-0.092z"></path>
</svg>
