<!-- Generated by IcoMoon.io -->
<svg version="1.1" xmlns="http://www.w3.org/2000/svg" width="32" height="32" viewBox="0 0 32 32">
<title>linkedin</title>
<path d="M27.251 27.252h-4.738v-7.414c0-1.768-0.030-4.043-2.462-4.043-2.466 0-2.842 1.927-2.842 3.916v7.541h-4.733v-15.246h4.542v2.084h0.065c0.632-1.199 2.178-2.463 4.483-2.463 4.798 0 5.684 3.157 5.684 7.263v8.362zM7.133 9.923c-1.522 0-2.749-1.231-2.749-2.748s1.227-2.748 2.749-2.748c1.516 0 2.746 1.231 2.746 2.748s-1.231 2.748-2.746 2.748zM9.503 27.252h-4.743v-15.246h4.743v15.246zM29.611 0.029h-27.228c-1.3 0-2.356 1.031-2.356 2.304v27.339c0 1.272 1.057 2.305 2.356 2.305h27.228c1.303 0 2.363-1.033 2.363-2.305v-27.339c0-1.272-1.061-2.304-2.363-2.304z"></path>
</svg>
