<!-- Generated by IcoMoon.io -->
<svg version="1.1" xmlns="http://www.w3.org/2000/svg" width="32" height="32" viewBox="0 0 32 32">
<title>phone-o</title>
<path d="M19.761 19.398c-0.837-0.602-2.782-2.041-3.951-3.211-1.171-1.171-2.612-3.119-3.214-3.955 0.911-0.98 1.605-1.935 1.85-3.056 0.317-1.45 0.081-3.429-2.236-6.307-1.458-1.812-2.862-2.532-4.055-2.764-1.392-0.27-2.672 0.061-3.836 0.791-1.045 0.656-1.985 1.719-2.82 2.553-1.002 1.002-1.682 2.759-1.442 5.152 0.363 3.608 2.907 9.297 8.471 14.864 0 0 0.001 0.001 0.001 0.001 5.568 5.564 11.256 8.109 14.864 8.471 2.394 0.241 4.15-0.439 5.152-1.442v0c0.834-0.834 1.898-1.776 2.555-2.821 0.731-1.165 1.063-2.445 0.792-3.837-0.232-1.194-0.953-2.599-2.767-4.057-0-0-0.001-0.001-0.001-0.001-2.88-2.312-4.857-2.549-6.305-2.233-1.121 0.245-2.076 0.938-3.059 1.851zM26.682 28.632c-1.935 1.935-9.154 0.098-16.287-7.030-7.129-7.133-8.966-14.352-7.030-16.287 1.678-1.678 3.721-4.607 6.791-0.792s1.558 4.885-0.171 6.615c-1.207 1.212 1.319 4.273 3.96 6.915s5.703 5.168 6.91 3.956c1.734-1.73 2.8-3.237 6.619-0.171 3.819 3.070 0.886 5.116-0.792 6.795z"></path>
</svg>
