<!-- Generated by IcoMoon.io -->
<svg version="1.1" xmlns="http://www.w3.org/2000/svg" width="32" height="32" viewBox="0 0 32 32">
<title>pinterest</title>
<path d="M15.989 0.042c-8.815 0-15.961 7.145-15.961 15.961 0 6.762 4.207 12.537 10.145 14.862-0.14-1.263-0.266-3.199 0.055-4.577 0.29-1.246 1.872-7.934 1.872-7.934s-0.477-0.956-0.477-2.37c0-2.219 1.287-3.876 2.888-3.876 1.361 0 2.019 1.022 2.019 2.248 0 1.369-0.872 3.416-1.322 5.314-0.377 1.589 0.796 2.885 2.363 2.885 2.837 0 5.016-2.991 5.016-7.309 0-3.821-2.745-6.493-6.666-6.493-4.541 0-7.207 3.406-7.207 6.926 0 1.372 0.529 2.843 1.188 3.642 0.131 0.159 0.149 0.298 0.111 0.459-0.121 0.504-0.391 1.588-0.444 1.809-0.070 0.292-0.231 0.355-0.534 0.214-1.994-0.929-3.24-3.842-3.24-6.184 0-5.035 3.658-9.659 10.546-9.659 5.537 0 9.84 3.946 9.84 9.218 0 5.501-3.468 9.928-8.282 9.928-1.618 0-3.138-0.839-3.658-1.833 0 0-0.801 3.049-0.994 3.794-0.36 1.387-1.333 3.125-1.984 4.185 1.494 0.462 3.080 0.712 4.726 0.712 8.814 0 15.961-7.147 15.961-15.961 0-8.816-7.147-15.961-15.961-15.961z"></path>
</svg>
