<!-- Generated by IcoMoon.io -->
<svg version="1.1" xmlns="http://www.w3.org/2000/svg" width="32" height="32" viewBox="0 0 32 32">
<title>reddit</title>
<path d="M18.982 20.465c0.113 0.112 0.113 0.295 0 0.408-0.62 0.616-1.591 0.916-2.973 0.916l-0.011-0.003-0.011 0.003c-1.381 0-2.354-0.3-2.973-0.917-0.113-0.112-0.113-0.295 0-0.406 0.112-0.112 0.296-0.112 0.409 0 0.505 0.502 1.343 0.748 2.564 0.748l0.011 0.003 0.011-0.003c1.219 0 2.058-0.245 2.564-0.748 0.113-0.112 0.297-0.112 0.409 0zM14.398 17.243c0-0.676-0.552-1.225-1.229-1.225-0.678 0-1.23 0.549-1.23 1.225 0 0.674 0.552 1.223 1.23 1.223 0.677 0.001 1.229-0.548 1.229-1.223zM31.992 16.004c0 8.832-7.161 15.992-15.992 15.992s-15.992-7.161-15.992-15.992c0-8.832 7.161-15.992 15.992-15.992s15.992 7.161 15.992 15.992zM25.329 15.832c0-1.134-0.926-2.056-2.066-2.056-0.556 0-1.059 0.223-1.431 0.58-1.407-0.926-3.312-1.515-5.419-1.591l1.153-3.63 3.122 0.732-0.004 0.045c0 0.928 0.758 1.682 1.69 1.682s1.689-0.754 1.689-1.682c0-0.928-0.757-1.682-1.689-1.682-0.716 0-1.325 0.446-1.571 1.072l-3.365-0.789c-0.147-0.036-0.297 0.049-0.343 0.193l-1.286 4.049c-2.207 0.027-4.205 0.621-5.675 1.574-0.369-0.34-0.858-0.553-1.399-0.553-1.138 0.001-2.064 0.924-2.064 2.058 0 0.754 0.414 1.407 1.024 1.766-0.040 0.219-0.067 0.441-0.067 0.666 0 3.040 3.738 5.513 8.333 5.513s8.333-2.473 8.333-5.513c0-0.213-0.023-0.422-0.059-0.629 0.648-0.348 1.093-1.021 1.093-1.803zM18.836 16.020c-0.678 0-1.229 0.549-1.229 1.225 0 0.674 0.552 1.223 1.229 1.223s1.229-0.549 1.229-1.223c0-0.676-0.55-1.225-1.229-1.225z"></path>
</svg>
