<!-- Generated by IcoMoon.io -->
<svg version="1.1" xmlns="http://www.w3.org/2000/svg" width="32" height="32" viewBox="0 0 32 32">
<title>snapchat</title>
<path d="M7.773 6.051c-0.8 1.791-0.484 5-0.356 7.245-0.864 0.478-1.972-0.361-2.6-0.361-0.653 0-1.433 0.429-1.555 1.069-0.088 0.461 0.119 1.133 1.601 1.718 0.573 0.227 1.936 0.493 2.252 1.237 0.444 1.045-2.279 5.868-6.554 6.572-0.335 0.055-0.573 0.353-0.554 0.692 0.075 1.299 2.988 1.808 4.279 2.008 0.132 0.179 0.239 0.933 0.408 1.507 0.076 0.257 0.272 0.565 0.776 0.565 0.657 0 1.748-0.506 3.649-0.192 1.863 0.311 3.614 2.952 6.977 2.952 3.125 0 4.99-2.653 6.783-2.952 1.038-0.172 1.93-0.117 2.927 0.077 0.686 0.135 1.302 0.209 1.498-0.465 0.172-0.582 0.277-1.322 0.406-1.497 1.279-0.199 4.206-0.706 4.279-2.006 0.019-0.338-0.22-0.636-0.554-0.692-4.203-0.693-7.009-5.501-6.554-6.572 0.315-0.742 1.669-1.006 2.252-1.237 1.085-0.428 1.629-0.954 1.617-1.563-0.015-0.78-0.953-1.245-1.643-1.245-0.702 0-1.711 0.832-2.528 0.381 0.128-2.263 0.442-5.457-0.356-7.247-1.513-3.389-4.878-5.103-8.241-5.103-3.342 0-6.682 1.69-8.207 5.108z"></path>
</svg>
