<!-- Generated by IcoMoon.io -->
<svg version="1.1" xmlns="http://www.w3.org/2000/svg" width="32" height="32" viewBox="0 0 32 32">
<title>soundcloud</title>
<path d="M4.055 15.408c-0.401-0.032-0.698-0.040-1.327 0.162v7.55c0.592 0.19 0.844 0.183 1.327 0.183v-7.895zM26.456 15.443c-0.271-3.765-3.191-6.741-6.791-6.741-1.356 0-2.607 0.435-3.666 1.164v13.435h12.063c2.133 0 3.863-1.849 3.863-4.122 0-2.964-2.877-5.006-5.469-3.736zM1.401 16.334c-0.804 0.726-1.327 1.797-1.327 3.010s0.523 2.284 1.327 3.010v-6.020zM5.382 23.302h1.327v-9.317c-0.414 0.608-0.737 1.289-0.918 2.037l-0.409-0.242v7.521zM10.691 23.302h1.327v-11.743c-0.674-0.105-0.827-0.066-1.327-0.013v11.756zM13.345 23.302h1.327v-12.242c-0.304 0.352-0.588 0.727-0.824 1.137l-0.503-0.244v11.349zM9.364 23.302h-1.327v-10.708c0.409-0.307 0.848-0.569 1.327-0.751v11.459z"></path>
</svg>
