<!-- Generated by IcoMoon.io -->
<svg version="1.1" xmlns="http://www.w3.org/2000/svg" width="32" height="32" viewBox="0 0 32 32">
<title>spotify</title>
<path d="M25.386 14.203c-5.112-3.036-13.544-3.315-18.423-1.834-0.784 0.238-1.612-0.205-1.85-0.988s0.205-1.612 0.989-1.85c5.602-1.7 14.914-1.372 20.798 2.121 0.705 0.418 0.936 1.329 0.518 2.032-0.418 0.705-1.329 0.937-2.032 0.519zM25.219 18.699c-0.359 0.582-1.12 0.764-1.701 0.407-4.262-2.619-10.76-3.378-15.802-1.848-0.654 0.198-1.345-0.171-1.543-0.824-0.197-0.654 0.172-1.343 0.824-1.542 5.76-1.748 12.92-0.901 17.814 2.107 0.581 0.358 0.764 1.119 0.407 1.7zM23.278 23.017c-0.285 0.467-0.893 0.614-1.359 0.329-3.724-2.276-8.411-2.79-13.931-1.529-0.532 0.122-1.062-0.211-1.183-0.743s0.21-1.062 0.743-1.183c6.041-1.381 11.222-0.787 15.402 1.768 0.466 0.285 0.613 0.893 0.328 1.359zM16.006 0.144c-8.758 0-15.858 7.1-15.858 15.858s7.1 15.858 15.858 15.858c8.758 0 15.858-7.099 15.858-15.858s-7.1-15.858-15.858-15.858z"></path>
</svg>
