<!-- Generated by IcoMoon.io -->
<svg version="1.1" xmlns="http://www.w3.org/2000/svg" width="32" height="32" viewBox="0 0 32 32">
<title>tiktok</title>
<path d="M29.662 12.949c-0.261 0.025-0.523 0.039-0.786 0.040-2.878 0-5.563-1.45-7.139-3.858v13.139c0 5.363-4.348 9.711-9.711 9.711s-9.711-4.348-9.711-9.711c0-5.363 4.348-9.711 9.711-9.711 0.203 0 0.401 0.018 0.6 0.031v4.785c-0.199-0.024-0.395-0.060-0.6-0.060-2.737 0-4.956 2.219-4.956 4.956s2.219 4.956 4.956 4.956c2.738 0 5.155-2.157 5.155-4.895l0.048-22.314h4.578c0.432 4.105 3.742 7.312 7.859 7.613v5.318z"></path>
</svg>
