<!-- Generated by IcoMoon.io -->
<svg version="1.1" xmlns="http://www.w3.org/2000/svg" width="32" height="32" viewBox="0 0 32 32">
<title>times</title>
<path d="M29.094 5.43l-23.656 23.656c-0.41 0.41-1.074 0.41-1.483 0l-1.049-1.049c-0.41-0.41-0.41-1.073 0-1.483l23.656-23.656c0.41-0.41 1.073-0.41 1.483 0l1.049 1.049c0.41 0.409 0.41 1.073 0 1.483z"></path>
<path d="M26.562 29.086l-23.656-23.656c-0.41-0.41-0.41-1.074 0-1.483l1.049-1.049c0.409-0.41 1.073-0.41 1.483 0l23.656 23.656c0.41 0.41 0.41 1.073 0 1.483l-1.049 1.049c-0.41 0.41-1.073 0.41-1.483 0z"></path>
</svg>
