<!-- Generated by IcoMoon.io -->
<svg version="1.1" xmlns="http://www.w3.org/2000/svg" width="32" height="32" viewBox="0 0 32 32">
<title>tumblr</title>
<path d="M25.582 0.018h-19.197c-3.509 0-6.382 2.873-6.382 6.382v19.197c0 3.509 2.873 6.382 6.382 6.382h19.197c3.509 0 6.382-2.873 6.382-6.382v-19.197c0-3.509-2.873-6.382-6.382-6.382zM21.489 25.953h-3.369c-3.033 0-5.293-1.561-5.293-5.293v-5.978h-2.756v-3.237c3.033-0.788 4.301-3.398 4.447-5.658h3.15v5.133h3.674v3.762h-3.674v5.205c0 1.56 0.787 2.1 2.041 2.1h1.779v3.966z"></path>
</svg>
