<!-- Generated by IcoMoon.io -->
<svg version="1.1" xmlns="http://www.w3.org/2000/svg" width="32" height="32" viewBox="0 0 32 32">
<title>twitter</title>
<path d="M10.086 28.664c12.027 0 18.604-9.964 18.604-18.604 0-0.283-0.006-0.565-0.019-0.845 1.277-0.923 2.386-2.074 3.262-3.385-1.172 0.52-2.432 0.871-3.755 1.029 1.35-0.809 2.386-2.090 2.875-3.617-1.264 0.749-2.662 1.294-4.152 1.587-1.193-1.271-2.892-2.066-4.773-2.066-3.611 0-6.54 2.928-6.54 6.538 0 0.513 0.057 1.012 0.17 1.491-5.434-0.273-10.253-2.875-13.477-6.831-0.562 0.966-0.886 2.089-0.886 3.286 0 2.269 1.154 4.271 2.91 5.443-1.072-0.033-2.080-0.328-2.961-0.818-0.001 0.027-0.001 0.055-0.001 0.083 0 3.167 2.254 5.811 5.246 6.41-0.549 0.149-1.127 0.23-1.724 0.23-0.421 0-0.831-0.042-1.229-0.118 0.832 2.598 3.246 4.488 6.108 4.541-2.238 1.754-5.057 2.799-8.121 2.799-0.528 0-1.048-0.030-1.56-0.090 2.894 1.854 6.33 2.937 10.023 2.937z"></path>
</svg>
