<!-- Generated by IcoMoon.io -->
<svg version="1.1" xmlns="http://www.w3.org/2000/svg" width="32" height="32" viewBox="0 0 32 32">
<title>user</title>
<path d="M11.524 15.093c-2.265-1.466-3.764-4.014-3.764-6.909 0-4.539 3.685-8.224 8.224-8.224s8.224 3.685 8.224 8.224c0 2.896-1.499 5.444-3.764 6.909 3.9 2.446 6.762 8.003 7.278 14.66 0.045 0.558-0.146 1.11-0.526 1.522s-0.914 0.645-1.474 0.645c-7.429 0.001-12.758 0.001-19.476 0.001-0.56 0-1.095-0.234-1.475-0.646s-0.571-0.964-0.526-1.522c0.517-6.657 3.379-12.214 7.279-14.66z"></path>
</svg>
