<!-- Generated by IcoMoon.io -->
<svg version="1.1" xmlns="http://www.w3.org/2000/svg" width="32" height="32" viewBox="0 0 32 32">
<title>user-o</title>
<path d="M9.444 15.186c-3.030 2.804-5.228 7.599-5.665 13.223-0.075 0.945 0.248 1.879 0.891 2.576s1.55 1.094 2.499 1.094c6.093 0 10.927 0 17.666-0.001 0.949 0 1.854-0.397 2.498-1.094s0.966-1.63 0.891-2.575c-0.436-5.624-2.634-10.419-5.664-13.223 1.538-1.621 2.481-3.811 2.481-6.219 0-4.989-4.051-9.040-9.040-9.040s-9.040 4.051-9.040 9.040c0 2.409 0.944 4.598 2.481 6.219zM12.796 16.572c0.457-0.287 0.736-0.787 0.74-1.327s-0.268-1.044-0.721-1.337c-1.62-1.048-2.693-2.87-2.693-4.941 0-3.246 2.635-5.881 5.881-5.881s5.881 2.635 5.881 5.881c0 2.071-1.074 3.893-2.693 4.941-0.453 0.293-0.725 0.798-0.721 1.337s0.283 1.040 0.74 1.327c3.2 2.007 5.442 6.619 5.866 12.082 0 0.001 0 0.003 0 0.004 0.005 0.067-0.017 0.133-0.063 0.182s-0.11 0.077-0.177 0.077c-0 0-0 0-0 0-6.739 0.001-11.573 0.001-17.666 0.001-0.067 0-0.132-0.028-0.178-0.078s-0.069-0.116-0.063-0.183c0-0.001 0-0.002 0-0.004 0.424-5.463 2.667-10.075 5.867-12.082z"></path>
</svg>
