<!-- Generated by IcoMoon.io -->
<svg version="1.1" xmlns="http://www.w3.org/2000/svg" width="32" height="32" viewBox="0 0 32 32">
<title>vimeo</title>
<path d="M26.904 10.635c-0.103 2.249-1.673 5.327-4.712 9.236-3.141 4.081-5.799 6.123-7.972 6.123-1.347 0-2.487-1.242-3.418-3.729-0.622-2.279-1.243-4.558-1.864-6.837-0.692-2.485-1.433-3.729-2.226-3.729-0.173 0-0.778 0.364-1.813 1.088l-1.087-1.4c1.14-1.002 2.265-2.003 3.371-3.006 1.521-1.313 2.663-2.005 3.424-2.074 1.797-0.173 2.904 1.056 3.319 3.686 0.449 2.838 0.76 4.603 0.934 5.294 0.519 2.355 1.089 3.531 1.712 3.531 0.483 0 1.21-0.764 2.179-2.292 0.967-1.527 1.485-2.689 1.555-3.488 0.138-1.318-0.38-1.979-1.555-1.979-0.553 0-1.124 0.127-1.71 0.379 1.136-3.718 3.305-5.524 6.507-5.421 2.374 0.070 3.494 1.609 3.356 4.618zM28.776 0.018h-25.576c-1.766 0-3.197 1.431-3.197 3.197v25.576c0 1.766 1.432 3.197 3.197 3.197h25.576c1.765 0 3.197-1.431 3.197-3.197v-25.576c0-1.766-1.431-3.197-3.197-3.197z"></path>
</svg>
