<!-- Generated by IcoMoon.io -->
<svg version="1.1" xmlns="http://www.w3.org/2000/svg" width="32" height="32" viewBox="0 0 32 32">
<title>whatsapp</title>
<path d="M0.076 31.995l2.248-8.213c-1.387-2.404-2.116-5.13-2.115-7.924 0.004-8.737 7.114-15.847 15.85-15.847 4.239 0.001 8.219 1.653 11.212 4.648 2.992 2.996 4.639 6.978 4.638 11.213-0.004 8.738-7.114 15.848-15.85 15.848-2.652-0.001-5.265-0.666-7.58-1.93l-8.403 2.204zM8.868 26.921c2.234 1.326 4.366 2.12 7.186 2.122 7.261 0 13.175-5.909 13.179-13.174 0.003-7.279-5.884-13.18-13.168-13.183-7.266 0-13.176 5.909-13.179 13.172-0.001 2.965 0.868 5.186 2.327 7.508l-1.331 4.862 4.987-1.307zM24.044 19.639c-0.099-0.165-0.363-0.264-0.76-0.462-0.396-0.199-2.343-1.157-2.707-1.289-0.363-0.132-0.626-0.199-0.892 0.199-0.264 0.396-1.023 1.289-1.254 1.553s-0.462 0.297-0.858 0.099c-0.396-0.199-1.673-0.616-3.185-1.966-1.177-1.050-1.972-2.347-2.203-2.744-0.231-0.396-0.024-0.61 0.173-0.808 0.179-0.177 0.396-0.462 0.594-0.694 0.201-0.229 0.267-0.394 0.4-0.66 0.132-0.264 0.067-0.496-0.033-0.694-0.1-0.197-0.892-2.147-1.221-2.94-0.322-0.772-0.649-0.668-0.892-0.68l-0.76-0.013c-0.264 0-0.693 0.099-1.056 0.496s-1.386 1.354-1.386 3.304c0 1.95 1.419 3.833 1.617 4.097 0.199 0.264 2.792 4.265 6.765 5.98 0.945 0.408 1.683 0.652 2.258 0.834 0.949 0.301 1.812 0.259 2.495 0.157 0.761-0.113 2.343-0.958 2.673-1.883 0.331-0.926 0.331-1.719 0.231-1.884z"></path>
</svg>
