<!-- Generated by IcoMoon.io -->
<svg version="1.1" xmlns="http://www.w3.org/2000/svg" width="32" height="32" viewBox="0 0 32 32">
<title>yelp</title>
<path d="M7.102 15.043l6.172 3.010c1.187 0.579 1.004 2.325-0.278 2.644l-6.662 1.661c-0.831 0.207-1.652-0.366-1.75-1.217-0.21-1.82-0.003-3.617 0.557-5.281 0.272-0.808 1.195-1.191 1.961-0.817z"></path>
<path d="M9.573 27.748l4.594-5.102c0.884-0.982 2.511-0.324 2.465 0.996l-0.24 6.864c-0.030 0.855-0.807 1.489-1.651 1.347-1.775-0.298-3.454-0.984-4.919-1.991-0.704-0.484-0.821-1.478-0.249-2.113z"></path>
<path d="M20.464 20.958l6.529 2.122c0.813 0.264 1.209 1.184 0.841 1.955-0.766 1.605-1.877 3.038-3.265 4.184-0.66 0.545-1.649 0.385-2.103-0.341l-3.64-5.825c-0.7-1.12 0.381-2.503 1.637-2.095z"></path>
<path d="M27.104 16.793l-6.6 1.892c-1.27 0.364-2.301-1.056-1.563-2.151l3.84-5.692c0.477-0.707 1.468-0.837 2.107-0.273 1.316 1.161 2.394 2.614 3.123 4.295 0.34 0.786-0.084 1.693-0.907 1.929z"></path>
<path d="M11.682 0.777c-1.188 0.318-2.321 0.739-3.393 1.25-0.744 0.355-1.025 1.27-0.613 1.984l6.451 11.173c0.724 1.254 2.64 0.74 2.64-0.707v-12.902c0-0.824-0.701-1.476-1.522-1.412-1.184 0.093-2.375 0.296-3.563 0.614z"></path>
</svg>
