<!-- Generated by IcoMoon.io -->
<svg version="1.1" xmlns="http://www.w3.org/2000/svg" width="32" height="32" viewBox="0 0 32 32">
<title>youtube</title>
<path d="M12.803 20.8v-9.595l8.309 4.798-8.309 4.797zM31.324 8.305c-0.368-1.376-1.452-2.46-2.828-2.828-2.494-0.668-12.495-0.668-12.495-0.668s-10.001 0-12.495 0.668c-1.376 0.368-2.46 1.452-2.828 2.828-0.668 2.494-0.668 7.698-0.668 7.698s0 5.204 0.668 7.698c0.368 1.376 1.452 2.46 2.828 2.828 2.494 0.668 12.495 0.668 12.495 0.668s10.001 0 12.495-0.668c1.376-0.368 2.46-1.452 2.828-2.828 0.668-2.494 0.668-7.698 0.668-7.698s0-5.204-0.668-7.698z"></path>
</svg>
