<?xml version="1.0" standalone="no"?>
<!DOCTYPE svg PUBLIC "-//W3C//DTD SVG 1.1//EN" "http://www.w3.org/Graphics/SVG/1.1/DTD/svg11.dtd" >
<svg xmlns="http://www.w3.org/2000/svg">
<metadata>Generated by IcoMoon</metadata>
<defs>
<font id="page-builder-framework" horiz-adv-x="1024">
<font-face units-per-em="1024" ascent="960" descent="-64" />
<missing-glyph horiz-adv-x="1024" />
<glyph unicode="&#x20;" horiz-adv-x="512" d="" />
<glyph unicode="&#xf101;" glyph-name="arrow-up" d="M532.868 529.831l325.099-325.099c11.499-11.498 30.141-11.498 41.638 0l39.327 39.326c11.498 11.499 11.498 30.141 0 41.638l-406.064 406.064c-11.499 11.499-30.141 11.499-41.638 0l-406.064-406.064c-11.499-11.498-11.499-30.14 0-41.638l39.326-39.326c11.499-11.498 30.141-11.498 41.638 0l325.099 325.099c11.498 11.499 30.14 11.499 41.638 0z" />
<glyph unicode="&#xf102;" glyph-name="arrow-down" d="M491.203 366.605l-325.328 325.328c-11.507 11.507-30.162 11.507-41.668 0l-39.355-39.354c-11.506-11.507-11.506-30.162 0-41.668l406.35-406.351c11.507-11.506 30.162-11.506 41.668 0l406.35 406.351c11.506 11.506 11.506 30.161 0 41.668l-39.354 39.354c-11.507 11.507-30.162 11.507-41.668 0l-325.329-325.328c-11.506-11.507-30.161-11.507-41.668 0z" />
<glyph unicode="&#xf103;" glyph-name="arrow-right" d="M593.614 427.427l-325.099-325.099c-11.499-11.499-11.499-30.141 0-41.638l39.326-39.327c11.499-11.498 30.141-11.498 41.638 0l406.064 406.064c11.499 11.499 11.499 30.141 0 41.638l-406.064 406.064c-11.498 11.499-30.14 11.499-41.638 0l-39.326-39.326c-11.499-11.499-11.499-30.141 0-41.638l325.099-325.099c11.498-11.498 11.498-30.14 0-41.638z" />
<glyph unicode="&#xf104;" glyph-name="arrow-left" d="M430.373 469.080l325.329 325.328c11.505 11.507 11.505 30.162 0 41.668l-39.355 39.354c-11.507 11.506-30.162 11.506-41.668 0l-406.35-406.35c-11.506-11.506-11.506-30.162 0-41.668l406.35-406.35c11.506-11.506 30.161-11.506 41.668 0l39.355 39.355c11.505 11.506 11.505 30.161 0 41.668l-325.329 325.328c-11.506 11.506-11.506 30.162 0 41.668z" />
<glyph unicode="&#xf105;" glyph-name="hamburger" d="M990.033 390.886h-956.044c-18.517 0-33.534 15.013-33.534 33.532v47.437c0 18.519 15.017 33.532 33.534 33.532h956.044c18.52 0 33.533-15.013 33.533-33.532v-47.437c0-18.519-15.013-33.532-33.533-33.532zM990.033 64.683h-956.044c-18.517 0-33.534 15.013-33.534 33.532v47.437c0 18.519 15.017 33.532 33.534 33.532h956.044c18.52 0 33.533-15.013 33.533-33.532v-47.437c0-18.519-15.013-33.532-33.533-33.532zM990.033 717.313h-956.044c-18.517 0-33.534 15.013-33.534 33.532v47.437c0 18.519 15.017 33.532 33.534 33.532h956.044c18.52 0 33.533-15.013 33.533-33.532v-47.437c0-18.519-15.013-33.532-33.533-33.532z" />
<glyph unicode="&#xf106;" glyph-name="times" d="M931.002 786.228l-756.987-756.989c-13.107-13.105-34.352-13.105-47.459 0l-33.565 33.565c-13.107 13.105-13.107 34.352 0 47.456l756.99 756.988c13.104 13.107 34.351 13.107 47.456 0l33.566-33.565c13.104-13.103 13.104-34.349 0-47.454zM849.978 29.241l-756.987 756.989c-13.107 13.105-13.107 34.352 0 47.456l33.565 33.566c13.103 13.105 34.349 13.105 47.454 0l756.99-756.987c13.105-13.107 13.105-34.352 0-47.459l-33.566-33.565c-13.105-13.107-34.352-13.107-47.456 0z" />
<glyph unicode="&#xf107;" glyph-name="clock" d="M511.987 51.841c-215.341 0-396.404 181.064-396.404 396.405s181.063 396.404 396.404 396.404c215.341 0 396.404-181.063 396.404-396.404s-181.063-396.405-396.404-396.405zM511.987 959.408c-282.307 0-511.162-228.855-511.162-511.162s228.855-511.159 511.162-511.159c282.307 0 511.161 228.853 511.161 511.159s-228.854 511.162-511.161 511.162zM557.924 519.337v207.186c0 16.261-13.182 29.443-29.443 29.443h-55.616c-16.261 0-29.443-13.182-29.443-29.443v-321.688c0-16.261 13.182-29.443 29.443-29.443h263.958c16.261 0 29.443 13.181 29.443 29.443v55.616c0 16.261-13.182 29.443-29.443 29.443h-149.456c-16.261 0-29.443 13.182-29.443 29.443z" />
<glyph unicode="&#xf108;" glyph-name="cart" d="M326.125 434.272h510.399c9.93 0 18.347 7.079 19.744 16.605l37.169 253.445c1.707 11.636-7.614 22.042-19.743 22.042h-584.737c-12.13 0-21.45-10.405-19.744-22.042l37.169-253.445c1.397-9.526 9.814-16.605 19.744-16.605zM934.223 325.204h-705.798c-9.93 0-18.347 7.079-19.744 16.605l-69.158 471.579c-1.706 11.636 7.615 22.042 19.744 22.042h844.114c12.129 0 21.45-10.405 19.744-22.042l-69.158-471.579c-1.396-9.526-9.814-16.605-19.744-16.605zM838.732 203.798l-74.87-74.979h-380.815l-90.366 85.281-77.2-23.261-89.079 616.461c-1.493 10.213-10.252 17.783-20.571 17.783h-84.273c-11.481 0-20.79 9.309-20.79 20.792v70.979c0 11.483 9.309 20.792 20.79 20.792h181.573c10.321 0 19.080-7.571 20.573-17.783l95.545-660.694c1.494-10.213 10.252-17.784 20.573-17.784h523.109c11.483 0 20.791-9.308 20.791-20.792l36.082-44.891-81.074 28.095zM846.525 164.571c-34.237 0-62.090-27.854-62.090-62.090s27.854-62.089 62.090-62.089c34.237 0 62.090 27.854 62.090 62.089s-27.854 62.090-62.090 62.090zM846.525-41.847c-79.583 0-144.328 64.745-144.328 144.328s64.745 144.328 144.328 144.328c79.583 0 144.328-64.745 144.328-144.328s-64.744-144.328-144.328-144.328zM276.32 164.571c-34.237 0-62.090-27.854-62.090-62.090s27.854-62.089 62.090-62.089c34.237 0 62.090 27.854 62.090 62.089s-27.854 62.090-62.090 62.090zM276.32-41.847c-79.583 0-144.328 64.745-144.328 144.328s64.745 144.328 144.328 144.328c79.583 0 144.328-64.745 144.328-144.328s-64.745-144.328-144.328-144.328z" />
<glyph unicode="&#xf109;" glyph-name="basket" d="M230.864 112.203h562.345c15.023 0 27.873 10.795 30.464 25.594l57.12 327.967c3.313 18.926-11.25 36.262-30.464 36.262h-676.585c-19.214 0-33.778-17.336-30.464-36.262l57.119-327.967c2.591-14.798 15.442-25.594 30.464-25.594zM890.509-5.246h-756.944c-15.023 0-27.873 10.796-30.464 25.594l-101.253 562.863c-3.314 18.927 11.25 36.262 30.464 36.262h959.445c19.216 0 33.782-17.336 30.467-36.262l-101.253-562.863c-2.591-14.797-15.442-25.594-30.464-25.594zM692.072 187.727c-27.651 0-50.066 22.415-50.066 50.066v138.642c0 27.65 22.415 50.066 50.066 50.066s50.066-22.415 50.066-50.066v-138.642c0-27.651-22.415-50.066-50.066-50.066zM332.003 187.727c-27.651 0-50.066 22.415-50.066 50.066v138.642c0 27.65 22.415 50.066 50.066 50.066s50.066-22.415 50.066-50.066v-138.642c0-27.651-22.415-50.066-50.066-50.066zM512.037 187.727c-27.651 0-50.066 22.415-50.066 50.066v138.642c0 27.65 22.415 50.066 50.066 50.066s50.066-22.415 50.066-50.066v-138.642c0-27.651-22.415-50.066-50.066-50.066zM102.665 547.76c-19.552 19.552-19.552 51.252 0 70.804l267.817 267.818c19.552 19.551 51.252 19.551 70.804 0v-0.001c19.552-19.552 19.552-51.252 0-70.803l-267.818-267.818c-19.551-19.552-51.251-19.552-70.803 0zM921.506 547.76c19.552 19.552 19.552 51.252 0 70.804l-267.817 267.818c-19.552 19.551-51.252 19.551-70.804 0v-0.001c-19.552-19.552-19.552-51.252 0-70.803l267.818-267.818c19.551-19.552 51.251-19.552 70.803 0z" />
<glyph unicode="&#xf10a;" glyph-name="caret-up" d="M928.492 307.877l-371.669 371.67c-24.739 24.739-64.848 24.739-89.587 0l-371.669-371.67c-39.906-39.906-11.647-108.141 44.792-108.141h743.341c56.436 0 84.7 68.234 44.793 108.141z" />
<glyph unicode="&#xf10b;" glyph-name="caret-down" d="M95.258 589.041l371.932-371.932c24.756-24.757 64.894-24.757 89.651 0l371.93 371.932c39.935 39.935 11.655 108.217-44.823 108.217h-743.865c-56.476 0-84.759-68.282-44.825-108.217z" />
<glyph unicode="&#xf10c;" glyph-name="caret-right" d="M370.967 31.438l371.669 371.668c24.739 24.738 24.739 64.848 0 89.587l-371.669 371.67c-39.907 39.907-108.141 11.644-108.141-44.793v-743.34c0-56.439 68.234-84.698 108.141-44.792z" />
<glyph unicode="&#xf10d;" glyph-name="caret-left" d="M653.135 864.655l-371.932-371.93c-24.757-24.757-24.757-64.894 0-89.651l371.932-371.932c39.935-39.935 108.217-11.651 108.217 44.826v743.864c0 56.479-68.282 84.758-108.217 44.823z" />
<glyph unicode="&#xf10e;" glyph-name="facebook" d="M966.969 959.336h-909.96c-31.189 0-56.454-25.272-56.454-56.454v-909.967c0-31.176 25.264-56.454 56.454-56.454h489.891v396.11h-133.3v154.372h133.3v113.844c0 132.12 80.688 204.060 198.547 204.060 56.452 0 104.975-4.207 119.118-6.083v-138.070l-81.746-0.036c-64.095 0-76.506-30.459-76.506-75.154v-98.56h152.866l-19.906-154.372h-132.961v-396.11h260.655c31.175 0 56.453 25.278 56.453 56.454v909.967c0 31.182-25.278 56.454-56.453 56.454z" />
<glyph unicode="&#xf10f;" glyph-name="twitter" d="M322.747 42.738c384.857 0 595.318 318.842 595.318 595.318 0 9.061-0.184 18.080-0.598 27.050 40.85 29.532 76.365 66.382 104.38 108.335-37.492-16.652-77.836-27.877-120.158-32.937 43.196 25.899 76.363 66.886 92.005 115.742-40.437-23.967-85.197-41.401-132.855-50.787-38.182 40.667-92.557 66.106-152.728 66.106-115.559 0-209.266-93.706-209.266-209.219 0-16.423 1.84-32.388 5.429-47.707-173.889 8.74-328.090 92.005-431.274 218.604-17.987-30.913-28.337-66.841-28.337-105.162 0-72.593 36.94-136.675 93.108-174.164-34.317 1.056-66.565 10.488-94.764 26.174-0.046-0.873-0.046-1.75-0.046-2.668 0-101.344 72.132-185.942 167.863-205.127-17.573-4.782-36.066-7.36-55.157-7.36-13.479 0-26.59 1.334-39.333 3.774 26.636-83.127 103.874-143.621 195.465-145.324-71.626-56.122-161.837-89.565-259.868-89.565-16.883 0-33.536 0.967-49.913 2.894 92.602-59.34 202.548-93.979 320.729-93.979z" />
<glyph unicode="&#xf110;" glyph-name="google" horiz-adv-x="1023" d="M520.789 513.229v-156.779h259.339c-10.452-67.219-78.39-197.28-259.339-197.28-156.126 0-283.509 129.277-283.509 288.735 0 159.392 127.383 288.735 283.509 288.735 88.841 0 148.287-37.888 182.256-70.551l124.117 119.544c-79.696 74.47-182.909 119.544-306.372 119.544-252.806 0-457.272-204.466-457.272-457.272s204.466-457.272 457.272-457.272c263.911 0 439.047 185.522 439.047 446.82 0 30.049-3.332 52.913-7.251 75.777h-431.796z" />
<glyph unicode="&#xf111;" glyph-name="youtube" d="M409.685 294.39v307.035l265.888-153.522-265.888-153.513zM1002.369 694.246c-11.771 44.033-46.45 78.713-90.484 90.483-79.814 21.386-399.855 21.386-399.855 21.386s-320.041 0-399.854-21.386c-44.034-11.77-78.714-46.45-90.484-90.483-21.386-79.814-21.386-246.339-21.386-246.339s0-166.524 21.386-246.338c11.771-44.034 46.45-78.712 90.484-90.483 79.814-21.386 399.854-21.386 399.854-21.386s320.041 0 399.855 21.386c44.034 11.771 78.714 46.449 90.484 90.483 21.385 79.814 21.385 246.338 21.385 246.338s0 166.524-21.385 246.339z" />
<glyph unicode="&#xf112;" glyph-name="pinterest" horiz-adv-x="1023" d="M511.654 958.658c-282.080 0-510.752-228.65-510.752-510.751 0-216.389 134.609-401.188 324.626-475.587-4.469 40.401-8.504 102.372 1.766 146.475 9.266 39.86 59.894 253.878 59.894 253.878s-15.276 30.594-15.276 75.855c0 70.994 41.171 124.032 92.421 124.032 43.558 0 64.614-32.71 64.614-71.948 0-43.81-27.892-109.319-42.295-170.042-12.054-50.837 25.478-92.319 75.63-92.319 90.778 0 160.522 95.723 160.522 233.887 0 122.287-87.825 207.788-213.312 207.788-145.308 0-230.622-108.987-230.622-221.629 0-43.891 16.914-90.987 38.009-116.545 4.18-5.073 4.779-9.521 3.554-14.676-3.886-16.127-12.509-50.832-14.195-57.897-2.244-9.351-7.397-11.348-17.080-6.861-63.806 29.721-103.687 122.951-103.687 197.895 0 161.104 117.069 309.082 337.468 309.082 177.171 0 314.878-126.279 314.878-294.993 0-176.027-110.978-317.685-265.020-317.685-51.769 0-100.423 26.853-117.069 58.652 0 0-25.622-97.554-31.815-121.415-11.534-44.388-42.669-100.005-63.49-133.92 47.797-14.799 98.57-22.779 151.233-22.779 282.063 0 510.753 228.689 510.753 510.752 0 282.101-228.69 510.751-510.753 510.751z" />
<glyph unicode="&#xf113;" glyph-name="linkedin" d="M872.024 87.932h-151.618v237.256c0 56.576-0.971 129.362-78.79 129.362-78.9 0-90.938-61.664-90.938-125.312v-241.306h-151.45v487.88h145.35v-66.697h2.078c20.217 38.356 69.693 78.804 143.465 78.804 153.529 0 181.902-101.020 181.902-232.418v-267.569zM228.255 642.469c-48.7 0-87.969 39.394-87.969 87.941 0 48.532 39.269 87.928 87.969 87.928 48.505 0 87.885-39.395 87.885-87.928 0-48.547-39.38-87.941-87.885-87.941zM304.104 87.932h-151.783v487.88h151.783v-487.88zM947.538 959.083h-871.29c-41.595 0-75.404-33.002-75.404-73.714v-874.863c0-40.715 33.809-73.773 75.404-73.773h871.29c41.684 0 75.629 33.058 75.629 73.773v874.863c0 40.712-33.945 73.714-75.629 73.714z" />
<glyph unicode="&#xf114;" glyph-name="vimeo" horiz-adv-x="1023" d="M860.939 619.689c-3.296-71.957-53.549-170.478-150.776-295.549-100.514-130.601-185.564-195.929-255.108-195.929-43.108 0-79.575 39.756-109.366 119.322-19.89 72.931-39.762 145.856-59.663 218.793-22.129 79.518-45.847 119.327-71.233 119.327-5.534 0-24.886-11.639-58.025-34.812l-34.769 44.792c36.487 32.051 72.473 64.1 107.88 96.2 48.663 42.030 85.219 64.149 109.564 66.381 57.516 5.531 92.932-33.793 106.22-117.962 14.366-90.824 24.316-147.306 29.891-169.41 16.605-75.358 34.858-112.998 54.778-112.998 15.456 0 38.714 24.437 69.714 73.34 30.941 48.864 47.525 86.050 49.763 111.61 4.427 42.18-12.168 63.316-49.763 63.316-17.703 0-35.956-4.071-54.727-12.118 36.345 118.987 105.759 176.777 208.212 173.48 75.968-2.228 111.793-51.486 107.407-147.779zM920.843 959.421h-818.421c-56.497 0-102.306-45.801-102.306-102.303v-818.423c0-56.5 45.809-102.303 102.306-102.303h818.421c56.496 0 102.303 45.802 102.303 102.303v818.423c0 56.501-45.807 102.303-102.303 102.303z" />
<glyph unicode="&#xf115;" glyph-name="soundcloud" d="M129.757 466.956c-12.826 1.019-22.34 1.274-42.47-5.181v-241.611c18.942-6.073 27.012-5.861 42.47-5.861v252.654zM846.607 465.809c-8.664 120.487-102.098 215.705-217.319 215.705-43.404 0-83.411-13.93-117.302-37.246v-429.923h386.009c68.252 0 123.631 59.161 123.631 131.911 0 94.836-92.073 160.196-175.019 119.553zM44.817 437.312c-25.737-23.231-42.47-57.505-42.47-96.322s16.733-73.090 42.47-96.321v192.643zM172.227 214.345h42.47v298.139c-13.251-19.452-23.571-41.239-29.389-65.192l-13.081 7.729v-240.677zM342.107 214.345h42.47v375.774c-21.575 3.355-26.459 2.123-42.47 0.424v-376.198zM427.046 214.345h42.47v391.742c-9.725-11.255-18.814-23.273-26.374-36.397l-16.096 7.815v-363.16zM299.637 214.345h-42.47v342.647c13.081 9.81 27.139 18.22 42.47 24.038v-366.685z" />
<glyph unicode="&#xf116;" glyph-name="yelp" d="M227.26 478.624l197.495-96.312c37.991-18.529 32.121-74.394-8.891-84.619l-213.188-53.157c-26.593-6.63-52.853 11.716-55.99 38.942-6.708 58.235-0.084 115.751 17.814 168.993 8.694 25.86 38.239 38.112 62.761 26.153zM306.335 72.066l146.993 163.274c28.281 31.413 80.365 10.371 78.891-31.87l-7.668-219.648c-0.957-27.37-25.811-47.633-52.819-43.097-56.796 9.539-110.521 31.496-157.42 63.709-22.543 15.483-26.273 47.308-7.976 67.631zM654.863 289.34l208.937-67.902c26.008-8.453 38.688-37.88 26.908-62.558-24.51-51.349-60.060-97.226-104.475-133.884-21.123-17.434-52.777-12.312-67.29 10.913l-116.466 186.385c-22.397 35.846 12.189 80.109 52.386 67.045zM867.337 422.629l-211.205-60.558c-40.63-11.649-73.647 33.796-50.009 68.837l122.879 182.157c15.258 22.617 46.971 26.78 67.428 8.732 42.12-37.161 76.615-83.658 99.925-137.447 10.896-25.146-2.674-54.166-29.018-61.721zM373.821 935.138c-38.012-10.185-74.28-23.645-108.569-39.995-23.796-11.346-32.785-40.651-19.604-63.483l206.431-357.55c23.161-40.114 84.479-23.683 84.479 22.635v412.864c0 26.362-22.439 47.248-48.718 45.177-37.872-2.985-76.009-9.462-114.020-19.647z" />
<glyph unicode="&#xf117;" glyph-name="instagram" d="M785.404 782.693c-33.968 0-61.493-27.524-61.493-61.45s27.525-61.449 61.493-61.449c33.926 0 61.408 27.524 61.408 61.449s-27.482 61.45-61.408 61.45zM512.035 277.223c-94.266 0-170.695 76.385-170.695 170.695 0 94.266 76.429 170.695 170.695 170.695s170.695-76.429 170.695-170.695c0-94.309-76.429-170.695-170.695-170.695zM512.035 710.874c-145.219 0-262.956-117.737-262.956-262.956s117.737-262.998 262.956-262.998c145.219 0 262.956 117.737 262.956 262.998 0 145.22-117.737 262.956-262.956 262.956zM512.035 960c-139.074 0-156.484-0.592-211.107-3.069-185.972-8.536-289.331-111.723-297.866-297.863-2.513-54.666-3.112-72.076-3.112-211.151s0.599-156.527 3.076-211.15c8.529-185.972 111.717-289.328 297.861-297.863 54.665-2.475 72.075-3.073 211.149-3.073s156.528 0.598 211.151 3.073c185.801 8.535 289.413 111.72 297.82 297.863 2.517 54.623 3.115 72.076 3.115 211.15s-0.597 156.485-3.073 211.107c-8.364 185.8-111.677 289.327-297.82 297.863-54.665 2.52-72.118 3.112-211.192 3.112zM512.035 867.703c136.727 0 152.943-0.513 206.968-2.99 138.776-6.319 203.596-72.162 209.912-209.913 2.476-53.982 2.945-70.199 2.945-206.925 0-136.769-0.512-152.943-2.945-206.925-6.358-137.623-71.009-203.597-209.912-209.913-54.025-2.475-70.156-2.987-206.968-2.987-136.727 0-152.943 0.512-206.925 2.987-139.116 6.358-203.596 72.503-209.911 209.955-2.476 53.982-2.988 70.156-2.988 206.925 0 136.727 0.554 152.901 2.988 206.925 6.358 137.708 71.009 203.595 209.911 209.914 54.026 2.434 70.198 2.946 206.925 2.946z" />
<glyph unicode="&#xf118;" glyph-name="search" d="M512.011 294.927c-35.023-14.813-72.294-22.324-110.777-22.324s-75.754 7.511-110.777 22.324c-33.887 14.333-64.344 34.876-90.526 61.058s-46.725 56.64-61.057 90.526c-14.814 35.022-22.325 72.293-22.325 110.776s7.511 75.754 22.325 110.777c14.332 33.887 34.875 64.344 61.057 90.527s56.64 46.725 90.526 61.058c35.023 14.813 72.294 22.324 110.777 22.324s75.754-7.511 110.777-22.324c33.887-14.332 64.343-34.876 90.525-61.058s46.725-56.64 61.058-90.527c14.814-35.022 22.324-72.293 22.324-110.777s-7.511-75.754-22.324-110.776c-14.333-33.887-34.875-64.344-61.058-90.526s-56.639-46.725-90.525-61.058zM1013.15 29.195l-290.167 290.166c49.26 66.504 78.397 148.811 78.397 237.927 0 220.996-179.152 400.147-400.147 400.147s-400.147-179.151-400.147-400.147c0-220.995 179.152-400.147 400.147-400.147 90.582 0 174.129 30.104 241.196 80.845l289.755-289.756c13.096-13.095 34.327-13.095 47.423 0l33.542 33.543c13.096 13.095 13.096 34.327 0 47.422z" />
<glyph unicode="&#xf119;" glyph-name="bag" d="M388.683 718.527c1.482 67.015 56.261 120.889 123.632 120.889s122.15-53.874 123.632-120.889h-247.264zM512.016 932.917c-118.947 0-215.527-95.761-216.86-214.39h-76.693c-26.458 0-48.754-19.746-51.953-46.011l-79.122-649.853c-3.797-31.183 20.54-58.661 51.953-58.661h745.35c31.413 0 55.749 27.478 51.953 58.661l-79.122 649.853c-3.198 26.264-25.495 46.011-51.953 46.011h-76.693c-1.333 118.629-97.913 214.39-216.86 214.39zM767.849 623.599l68.75-564.669h-649.166l68.751 564.669h511.665z" />
<glyph unicode="&#xf11a;" glyph-name="behance" d="M948.059 959.451c41.711 0 75.681-33.024 75.681-73.76v-875.484c0-40.743-33.97-73.825-75.681-73.825h-871.902c-41.632 0-75.464 33.081-75.464 73.825v875.484c0 40.736 33.832 73.76 75.464 73.76h871.902zM346.824 213.794c23.73 0 45.762 2.123 66.112 6.326 20.292 4.196 37.934 12.053 52.846 23.506 13.23 9.908 24.25 22.213 33.125 36.786 13.945 22.011 20.798 46.932 20.798 74.713 0 26.864-6.080 49.741-18.249 68.589-12.081 18.913-30.157 32.648-53.98 41.372 15.728 8.009 27.608 16.884 35.652 26.64 14.457 17.404 21.643 40.31 21.643 68.943 0 27.738-7.099 51.612-21.419 71.499-23.86 32.431-64.271 48.947-121.27 49.878h-226.139v-468.253h210.88zM888.403 371.388c0.419 29.059-0.607 51.287-2.889 66.603-4.131 26.308-12.984 49.402-26.748 69.376-15.216 22.683-34.526 39.184-57.894 49.669-23.448 10.478-49.72 15.685-78.873 15.685-49.185 0-89.084-15.454-119.999-46.513-30.799-31.002-46.152-75.536-46.152-133.727 0-62.047 17.1-106.783 51.142-134.362 34.157-27.485 73.507-41.278 118.157-41.278 54.052 0 96.139 16.357 126.144 48.969 19.368 20.523 30.15 40.714 32.489 60.624h-89.51c-5.192-9.778-11.2-17.526-18.010-23.015-12.508-10.356-28.741-15.389-48.672-15.389-18.891 0-35.031 4.131-48.34 12.587-22.069 13.49-33.702 37.068-35.053 70.77h244.207zM344.441 419.909c20.068-0.181 35.724-2.802 46.824-7.936 19.845-9.020 29.781-25.838 29.781-50.16 0-28.842-10.269-48.268-30.742-58.472-11.359-5.553-27.095-8.218-47.423-8.218h-98.948v124.786h100.508zM797.406 429.253c-1.639 23.311-9.417 40.953-23.434 53.005-13.894 12.089-31.262 18.162-51.973 18.162-22.545 0-39.956-6.492-52.327-19.238-12.45-12.724-20.206-30.027-23.376-51.929h151.109zM331.081 600.733c22.394 0 40.852-2.491 55.273-7.323 16.783-6.961 25.152-21.419 25.152-43.199 0-19.715-6.319-33.442-18.992-41.169-12.674-7.734-29.139-11.605-49.496-11.605h-99.085v103.295h87.148zM815.568 615.783v46.838h-188.581v-46.838h188.581z" />
<glyph unicode="&#xf11b;" glyph-name="spotify" d="M812.361 505.507c-163.575 97.143-433.394 106.074-589.545 58.676-25.075-7.605-51.592 6.551-59.191 31.625-7.599 25.087 6.544 51.586 31.638 59.209 179.251 54.416 477.235 43.902 665.545-67.88 22.554-13.386 29.953-42.515 16.585-65.032-13.38-22.554-42.533-29.989-65.032-16.597zM807.004 361.626c-11.477-18.621-35.825-24.463-54.422-13.028-136.373 83.823-344.322 108.104-505.661 59.136-20.924-6.326-43.024 5.472-49.374 26.353-6.308 20.924 5.496 42.981 26.378 49.344 184.311 55.925 413.433 28.838 570.063-67.414 18.597-11.453 24.451-35.819 13.016-54.392zM744.911 223.447c-9.12-14.955-28.59-19.639-43.49-10.526-119.169 72.831-269.158 89.277-445.798 48.932-17.022-3.902-33.983 6.763-37.867 23.784-3.896 17.016 6.726 33.983 23.79 37.867 193.297 44.187 359.114 25.172 492.869-56.561 14.913-9.108 19.609-28.59 10.495-43.496zM512.183 955.377c-280.26 0-507.461-227.195-507.461-507.449 0-280.284 227.201-507.461 507.461-507.461 280.266 0 507.455 227.177 507.455 507.461 0 280.254-227.189 507.449-507.455 507.449z" />
<glyph unicode="&#xf11c;" glyph-name="reddit" d="M607.435 305.105c3.625-3.582 3.625-9.425 0-13.050-19.83-19.703-50.92-29.298-95.144-29.298l-0.341 0.085-0.341-0.085c-44.181 0-75.313 9.595-95.144 29.341-3.625 3.582-3.625 9.425 0 13.007 3.582 3.582 9.467 3.582 13.092 0 16.163-16.078 42.987-23.925 82.051-23.925l0.341-0.085 0.341 0.085c39.021 0 65.846 7.847 82.051 23.925 3.625 3.582 9.51 3.582 13.092 0zM460.732 408.223c0 21.622-17.656 39.192-39.32 39.192-21.707 0-39.362-17.57-39.362-39.192 0-21.579 17.656-39.149 39.362-39.149 21.664-0.043 39.32 17.528 39.32 39.149zM1023.747 447.884c0-282.616-229.138-511.754-511.754-511.754s-511.754 229.138-511.754 511.754c0 282.616 229.138 511.754 511.754 511.754s511.754-229.138 511.754-511.754zM810.516 453.386c0 36.292-29.639 65.803-66.102 65.803-17.783 0-33.904-7.122-45.802-18.551-45.034 29.639-105.976 48.489-173.399 50.92l36.889 116.168 99.92-23.413-0.128-1.45c0-29.682 24.266-53.82 54.075-53.82s54.033 24.138 54.033 53.82c0 29.682-24.223 53.82-54.033 53.82-22.901 0-42.39-14.286-50.28-34.288l-107.682 25.247c-4.691 1.151-9.51-1.578-10.96-6.184l-41.154-129.559c-70.622-0.853-134.549-19.873-181.588-50.365-11.813 10.875-27.464 17.698-44.779 17.698-36.42-0.043-66.059-29.554-66.059-65.846 0-24.138 13.263-45.034 32.752-56.506-1.279-6.994-2.132-14.116-2.132-21.323 0-97.276 119.623-176.427 266.667-176.427s266.667 79.151 266.667 176.427c0 6.823-0.725 13.519-1.876 20.129 20.726 11.131 34.97 32.667 34.97 57.7zM602.744 447.373c-21.707 0-39.32-17.57-39.32-39.192 0-21.579 17.656-39.149 39.32-39.149s39.32 17.57 39.32 39.149c0 21.622-17.613 39.192-39.32 39.192z" />
<glyph unicode="&#xf11d;" glyph-name="info" d="M511.754 959.675c-282.445 0-511.754-229.31-511.754-511.754s229.31-511.754 511.754-511.754c282.445 0 511.754 229.31 511.754 511.754s-229.31 511.754-511.754 511.754zM580.618 566.894v-365.795c0-32.583 3.784-53.403 11.359-62.451 7.568-9.048 22.372-14.233 44.426-15.548v-17.772h-249.299v17.772c20.408 0.657 35.544 6.579 45.416 17.772 6.586 7.568 9.879 27.644 9.879 60.227v269.533c0 32.583-3.784 53.395-11.359 62.444-7.568 9.056-22.213 14.233-43.935 15.555v18.263h193.513zM511.509 790.52c21.39 0 39.494-7.489 54.298-22.466 14.811-14.97 22.22-32.988 22.22-54.052s-7.489-38.996-22.466-53.807c-14.97-14.811-32.988-22.213-54.052-22.213s-38.996 7.402-53.807 22.213c-14.811 14.811-22.213 32.742-22.213 53.807s7.402 39.082 22.213 54.052c14.811 14.977 32.742 22.466 53.807 22.466zM511.754 959.675c282.445 0 511.754-229.31 511.754-511.754s-229.31-511.754-511.754-511.754c-282.445 0-511.754 229.31-511.754 511.754s229.31 511.754 511.754 511.754zM580.618 566.894h-193.513v-18.263c21.722-1.322 36.367-6.499 43.935-15.555 7.575-9.048 11.359-29.861 11.359-62.444v-269.533c0-32.583-3.293-52.659-9.879-60.227-9.872-11.193-25.008-17.115-45.416-17.772v-17.772h249.299v17.772c-22.054 1.314-36.858 6.499-44.426 15.548-7.575 9.048-11.359 29.868-11.359 62.451v365.795zM352.182 814.553c-141.345-61.635-240.25-202.677-240.25-366.632 0-132.203 64.3-249.501 163.306-322.271 0.874 39.992 22.769 74.93 55.23 93.987v232.444c-33.204 19.498-55.295 55.569-55.295 96.551v18.263c0 40.989 22.040 76.836 54.912 96.312-4.369 16.017-6.528 32.951-6.528 50.796 0 37.443 9.525 70.972 28.626 100.551zM671.327 814.553c19.101-29.579 28.633-63.108 28.633-100.551 0-33.356-7.575-63.549-22.762-90.55 9.771-16.595 15.353-35.927 15.353-56.558v-346.968c32.785-19.021 54.854-54.154 55.721-94.276 99.006 72.77 163.306 190.068 163.306 322.271 0 163.956-98.905 304.997-240.25 366.632zM511.509 790.52c-21.065 0-38.996-7.489-53.807-22.466-14.811-14.97-22.213-32.988-22.213-54.052s7.402-38.996 22.213-53.807c14.811-14.811 32.742-22.213 53.807-22.213s39.082 7.402 54.052 22.213c14.977 14.811 22.466 32.742 22.466 53.807s-7.409 39.082-22.22 54.052c-14.804 14.977-32.908 22.466-54.298 22.466z" />
<glyph unicode="&#xf11e;" glyph-name="rss" d="M292.51 82.382c0-80.753-65.463-146.216-146.216-146.216s-146.216 65.463-146.216 146.216c0 80.753 65.463 146.216 146.216 146.216s146.216-65.463 146.216-146.216zM0.079 618.481v-194.978c268.744 0 487.409-218.592 487.409-487.336h194.905c0 376.213-306.102 682.315-682.315 682.315zM0.079 959.675v-194.978c456.924 0 828.603-371.607 828.603-828.53h194.905c0 564.392-459.117 1023.509-1023.509 1023.509z" />
<glyph unicode="&#xf11f;" glyph-name="github" d="M512.022 959.314c-282.375 0-511.394-228.977-511.394-511.394 0-225.951 146.514-417.638 349.751-485.27 25.527-4.73 33.795 11.123 33.795 24.59v95.204c-142.253-30.939-171.871 60.344-171.871 60.344-23.268 59.109-56.807 74.834-56.807 74.834-46.409 31.749 3.537 31.067 3.537 31.067 51.352-3.58 78.371-52.716 78.371-52.716 45.599-78.158 119.624-55.571 148.816-42.488 4.56 33.028 17.814 55.614 32.474 68.356-113.572 12.998-232.983 56.85-232.983 252.756 0 55.87 19.987 101.469 52.674 137.267-5.284 12.913-22.8 64.947 4.986 135.349 0 0 42.957 13.722 140.676-52.418 40.784 11.336 84.508 17.004 127.976 17.217 43.468-0.213 87.235-5.881 128.104-17.217 97.634 66.14 140.505 52.418 140.505 52.418 27.828-70.444 10.313-122.479 5.029-135.349 32.814-35.798 52.631-81.439 52.631-137.267 0-196.418-119.624-239.673-233.494-252.33 18.325-15.853 35.073-46.963 35.073-94.693v-140.335c0-13.595 8.182-29.576 34.136-24.547 203.066 67.717 349.41 259.362 349.41 485.228 0 282.417-228.977 511.394-511.394 511.394z" />
<glyph unicode="&#xf120;" glyph-name="messenger" d="M511.97 959.414c-282.445 0-511.444-212.036-511.444-473.555 0-149.043 74.372-281.976 190.598-368.751v-180.582l174.147 95.555c46.456-12.829 95.725-19.776 146.699-19.776 282.445 0 511.444 211.994 511.444 473.555 0 261.518-228.999 473.555-511.444 473.555zM562.816 321.686l-130.248 138.9-254.145-138.9 279.547 296.765 133.402-138.9 250.991 138.9-279.547-296.765z" />
<glyph unicode="&#xf121;" glyph-name="xing" d="M635.134-63.734l-227.048 412.261 344.155 611.248h210.374l-344.112-611.248 224.746-412.261h-208.113zM324.201 746.544h-210.63l118.045-202.314-175.489-309.441h209.563l175.574 310.081-117.064 201.674z" />
<glyph unicode="&#xf122;" glyph-name="whatsapp" d="M2.445-63.834l71.944 262.829c-44.395 76.934-67.722 164.145-67.68 253.574 0.128 279.589 227.645 507.106 507.191 507.106 135.658-0.043 262.999-52.881 358.783-148.75 95.741-95.869 148.451-223.296 148.409-358.825-0.128-279.631-227.645-507.149-507.191-507.149-84.866 0.043-168.495 21.323-242.572 61.752l-268.884-70.537zM283.782 98.52c71.475-42.433 139.709-67.85 229.948-67.893 232.337 0 421.6 189.093 421.728 421.558 0.085 232.934-188.283 421.771-421.387 421.856-232.507 0-421.643-189.093-421.728-421.515-0.043-94.888 27.763-165.936 74.46-240.269l-42.604-155.573 159.582 41.836zM769.395 331.539c-3.156 5.288-11.6 8.444-24.308 14.798-12.666 6.354-74.972 37.017-86.614 41.239-11.6 4.222-20.044 6.354-28.53-6.354-8.444-12.666-32.752-41.239-40.13-49.683s-14.798-9.51-27.464-3.156c-12.666 6.354-53.521 19.703-101.924 62.903-37.657 33.605-63.116 75.1-70.494 87.809-7.378 12.666-0.768 19.532 5.544 25.844 5.715 5.672 12.666 14.798 19.020 22.219 6.44 7.335 8.529 12.623 12.794 21.11 4.222 8.444 2.132 15.864-1.066 22.219-3.198 6.312-28.53 68.703-39.064 94.078-10.32 24.692-20.769 21.366-28.53 21.75l-24.308 0.426c-8.444 0-22.176-3.156-33.776-15.864s-44.352-43.329-44.352-105.72c0-62.391 45.418-122.65 51.73-131.094 6.354-8.444 89.344-136.468 216.472-191.354 30.236-13.050 53.862-20.854 72.243-26.697 30.364-9.638 57.999-8.273 79.834-5.032 24.351 3.625 74.972 30.663 85.548 60.259 10.576 29.639 10.576 55.014 7.378 60.302z" />
<glyph unicode="&#xf123;" glyph-name="snapchat" d="M248.744 766.36c-25.588-57.317-15.481-160.009-11.387-231.825-27.635-15.31-63.116 11.557-83.203 11.557-20.897 0-45.845-13.732-49.768-34.202-2.815-14.756 3.796-36.249 51.218-54.971 18.338-7.25 61.965-15.779 72.072-39.576 14.201-33.435-72.925-187.771-209.734-210.288-10.704-1.748-18.338-11.301-17.741-22.133 2.388-41.58 95.613-57.871 136.937-64.268 4.222-5.715 7.634-29.852 13.050-48.233 2.431-8.231 8.7-18.082 24.82-18.082 21.025 0 55.952 16.206 116.765 6.141 59.619-9.937 115.657-94.461 223.253-94.461 100.005 0 159.667 84.909 217.069 94.461 33.221 5.501 61.752 3.753 93.651-2.473 21.963-4.307 41.665-6.695 47.934 14.884 5.501 18.636 8.87 42.305 13.007 47.892 40.94 6.354 134.591 22.602 136.937 64.183 0.597 10.832-7.037 20.342-17.741 22.133-134.506 22.176-224.276 176.044-209.734 210.288 10.065 23.754 53.393 32.198 72.072 39.576 34.714 13.689 52.114 30.535 51.73 50.024-0.469 24.948-30.492 39.832-52.583 39.832-22.475 0-54.758-26.611-80.9-12.197 4.094 72.413 14.159 174.636-11.387 231.91-48.403 108.449-156.085 163.292-263.724 163.292-106.957 0-213.828-54.075-262.615-163.463z" />
<glyph unicode="&#xf124;" glyph-name="email" horiz-adv-x="1023" d="M32.768 831.592c0.361 0.007 0.722 0.014 1.082 0.014h956.044c0.361 0 0.722-0.007 1.082-0.014 17.94-0.491 32.286-11.553 32.286-25.127v-716.851c0-13.574-14.346-24.637-32.286-25.127-0.361-0.007-957.848-0.007-958.209 0-17.947 0.491-32.293 11.553-32.293 25.127v716.851c0 13.574 14.346 24.637 32.293 25.127zM114.977 562.242v-383.268h793.784v383.268l-388.637-224.378c-2.591-1.494-5.622-1.912-8.854-1.393-2.865-0.296-5.549 0.18-7.88 1.523l-388.413 224.248zM114.977 717.105v-22.645l396.892-229.148 396.892 229.148v22.645h-793.784z" />
<glyph unicode="&#xf125;" glyph-name="home" d="M365.443 10.769c0-26.527-21.512-48.039-48.046-48.039-59.679 0-153.752 0-153.752 0-26.058 0-47.18 21.122-47.18 47.18v445.169c0 16.995 9.143 32.676 23.922 41.047 73.376 41.573 293.972 166.553 355.47 201.394 9.966 5.65 22.169 5.65 32.134 0 61.491-34.841 282.094-159.82 355.47-201.394 14.779-8.371 23.915-24.052 23.915-41.047v-445.169c0-26.058-21.115-47.18-47.173-47.18h-153.759c-26.527 0-48.039 21.512-48.039 48.039 0 64.377 0 177.984 0 242.599 0 26.802-21.728 48.53-48.53 48.53-54.267 0-141.643 0-195.902 0-26.809 0-48.53-21.728-48.53-48.53v-242.599zM849.646 746.309l156.898-90.58c16.042-9.266 21.534-29.767 12.275-45.809l-23.72-41.083c-9.259-16.035-29.767-21.534-45.802-12.268 0 0-342.531 197.757-420.208 242.606-9.619 5.549-21.461 5.549-31.074 0-77.677-44.85-420.208-242.614-420.208-242.614-16.042-9.259-36.551-3.76-45.809 12.275l-23.72 41.083c-9.259 16.042-3.76 36.544 12.275 45.809l473.061 273.117c6.278 3.623 13.235 4.986 19.939 4.344 6.697 0.642 13.661-0.722 19.939-4.344l201.654-116.429v75.252c0 18.524 15.017 33.534 33.534 33.534h47.44c18.517 0 33.527-15.010 33.527-33.534v-141.361z" />
<glyph unicode="&#xf126;" glyph-name="user" horiz-adv-x="1023" d="M368.763 477.031c-72.467 46.899-120.448 128.444-120.448 221.102 0 145.251 117.922 263.18 263.18 263.18s263.18-117.93 263.18-263.18c0-92.658-47.982-174.203-120.448-221.102 124.785-78.283 216.368-256.101 232.886-469.12 1.429-17.868-4.669-35.519-16.829-48.689-12.152-13.17-29.262-20.653-47.18-20.653-237.743-0.043-408.265-0.043-623.218-0.043-17.933 0-35.050 7.498-47.209 20.675-12.167 13.177-18.272 30.835-16.836 48.71 16.54 213.019 108.13 390.837 232.922 469.12z" />
</font>
</defs>
</svg>
