<?xml version="1.0" standalone="no"?>
<!DOCTYPE svg PUBLIC "-//W3C//DTD SVG 1.1//EN" "http://www.w3.org/Graphics/SVG/1.1/DTD/svg11.dtd" >
<svg xmlns="http://www.w3.org/2000/svg">
<metadata>Generated by IcoMoon</metadata>
<defs>
<font id="page-builder-framework" horiz-adv-x="1024">
<font-face units-per-em="1024" ascent="852.48" descent="-171.52" />
<missing-glyph horiz-adv-x="1024" />
<glyph unicode="&#x20;" horiz-adv-x="512" d="" />
<glyph unicode="&#xf101;" glyph-name="arrow-up" d="M532.844 417.678l325.482-325.482c5.335-5.333 12.704-8.631 20.844-8.631s15.509 3.298 20.844 8.631l39.376 39.376c5.333 5.335 8.631 12.704 8.631 20.844s-3.298 15.509-8.631 20.844l-406.545 406.545c-5.335 5.333-12.704 8.631-20.844 8.631s-15.509-3.298-20.844-8.631l-406.545-406.545c-5.333-5.335-8.631-12.704-8.631-20.844s3.298-15.509 8.631-20.844l39.376-39.376c5.335-5.333 12.704-8.631 20.844-8.631s15.509 3.298 20.844 8.631l325.482 325.482c5.334 5.336 12.703 8.637 20.844 8.637s15.51-3.301 20.844-8.637v0z" />
<glyph unicode="&#xf102;" glyph-name="arrow-down" d="M491.156 254.315l-325.482 325.489c-5.335 5.333-12.704 8.631-20.844 8.631s-15.509-3.298-20.844-8.631l-39.376-39.376c-5.333-5.335-8.631-12.704-8.631-20.844s3.298-15.509 8.631-20.844l406.545-406.545c5.335-5.333 12.704-8.631 20.844-8.631s15.509 3.298 20.844 8.631l406.545 406.545c5.333 5.335 8.631 12.704 8.631 20.844s-3.298 15.509-8.631 20.844l-39.376 39.376c-5.335 5.333-12.704 8.631-20.844 8.631s-15.509-3.298-20.844-8.631l-325.482-325.489c-5.335-5.333-12.704-8.631-20.844-8.631s-15.509 3.298-20.844 8.631v0z" />
<glyph unicode="&#xf103;" glyph-name="arrow-right" d="M593.685 315.156l-325.489-325.475c-5.333-5.335-8.631-12.704-8.631-20.844s3.298-15.509 8.631-20.844l39.376-39.376c5.335-5.333 12.704-8.631 20.844-8.631s15.509 3.298 20.844 8.631l406.545 406.545c5.333 5.335 8.631 12.704 8.631 20.844s-3.298 15.509-8.631 20.844l-406.545 406.545c-5.335 5.333-12.704 8.631-20.844 8.631s-15.509-3.298-20.844-8.631l-39.376-39.376c-5.333-5.335-8.631-12.704-8.631-20.844s3.298-15.509 8.631-20.844l325.489-325.482c5.335-5.336 8.634-12.706 8.634-20.847s-3.3-15.512-8.634-20.847v0z" />
<glyph unicode="&#xf104;" glyph-name="arrow-left" d="M430.322 356.844l325.482 325.482c5.333 5.335 8.631 12.704 8.631 20.844s-3.298 15.509-8.631 20.844l-39.376 39.376c-5.335 5.333-12.704 8.631-20.844 8.631s-15.509-3.298-20.844-8.631l-406.545-406.545c-5.333-5.335-8.631-12.704-8.631-20.844s3.298-15.509 8.631-20.844l406.545-406.545c5.335-5.333 12.704-8.631 20.844-8.631s15.509 3.298 20.844 8.631l39.376 39.376c5.333 5.335 8.631 12.704 8.631 20.844s-3.298 15.509-8.631 20.844l-325.482 325.482c-5.336 5.334-8.637 12.703-8.637 20.844s3.301 15.51 8.637 20.844v0z" />
<glyph unicode="&#xf105;" glyph-name="hamburger" d="M33.415 393.207h957.17c18.542 0 33.574-15.032 33.574-33.574v-47.489c0-18.542-15.032-33.574-33.574-33.574h-957.17c-18.542 0-33.574 15.032-33.574 33.574v47.489c0 18.542 15.032 33.574 33.574 33.574zM33.415 66.612h957.17c18.542 0 33.574-15.032 33.574-33.574v-47.489c0-18.542-15.032-33.574-33.574-33.574h-957.17c-18.542 0-33.574 15.032-33.574 33.574v47.489c0 18.542 15.032 33.574 33.574 33.574zM33.415 720.018h957.17c18.542 0 33.574-15.032 33.574-33.574v-47.489c0-18.542-15.032-33.574-33.574-33.574h-957.17c-18.542 0-33.574 15.032-33.574 33.574v47.489c0 18.542 15.032 33.574 33.574 33.574z" />
<glyph unicode="&#xf106;" glyph-name="times" d="M93.333-2.681l757.351 757.351c13.112 13.112 34.369 13.112 47.481 0l32.497-32.497c13.112-13.112 13.112-34.369 0-47.481l-757.351-757.351c-13.112-13.112-34.369-13.112-47.481 0l-32.497 32.497c-13.112 13.112-13.112 34.369 0 47.481zM173.319 754.667l757.351-757.351c13.112-13.112 13.112-34.369 0-47.481l-32.497-32.497c-13.112-13.112-34.369-13.112-47.481 0l-757.351 757.351c-13.112 13.112-13.112 34.369 0 47.481l32.497 32.497c13.112 13.112 34.369 13.112 47.481 0z" />
<glyph unicode="&#xf107;" glyph-name="clock" d="M577.913 430.495v179.322c-0.004 19.106-15.494 34.593-34.6 34.593h-65.356c-19.107 0-34.596-15.487-34.6-34.592v0-313.879c0-19.109 15.491-34.6 34.6-34.6h253.717c19.109 0 34.6 15.491 34.6 34.6v0 65.356c0 19.109-15.491 34.6-34.6 34.6v0h-119.168c-19.106 0.004-34.593 15.494-34.593 34.6v0zM512 847.769c-282.638 0-511.769-229.131-511.769-511.769s229.131-511.769 511.769-511.769 511.769 229.123 511.769 511.769-229.123 511.769-511.769 511.769zM512-54.376c-215.598 0-390.369 174.778-390.369 390.376s174.77 390.369 390.369 390.369 390.39-174.77 390.39-390.369-174.792-390.39-390.39-390.39z" />
<glyph unicode="&#xf108;" glyph-name="cart" d="M934.679 213.155h-706.639c-9.941 0-18.366 7.088-19.767 16.617l-69.236 472.147c-1.712 11.654 7.622 22.065 19.767 22.065h845.111c12.145 0 21.48-10.411 19.767-22.065l-69.236-472.14c-1.402-9.537-9.826-16.625-19.767-16.625zM325.843 322.352h511.017c9.941 0 18.373 7.088 19.767 16.617l37.215 253.746c1.705 11.654-7.622 22.072-19.767 22.072h-585.434c-12.145 0-21.472-10.418-19.767-22.072l37.215-253.746c1.394-9.53 9.826-16.617 19.753-16.617zM839.071 91.61l-74.958-75.067h-381.265l-90.47 85.377-77.306-23.286-89.17 617.195c-1.529 10.12-10.166 17.788-20.594 17.788-0.002 0-0.003 0-0.005 0h-84.35c-0.006 0-0.014 0-0.022 0-11.496 0-20.815 9.319-20.815 20.815 0 0.005 0 0.010 0 0.015v-0.001 71.064c0 11.496 9.319 20.815 20.815 20.815 0.008 0 0.015 0 0.023 0h181.77c0.001 0 0.002 0 0.002 0 10.433 0 19.073-7.675 20.582-17.687l0.014-0.115 95.658-661.476c1.519-10.128 10.158-17.806 20.591-17.809h523.734c11.496 0 20.815-9.319 20.815-20.815v0l36.125-44.946zM846.874-154.325c-79.676 0-144.498 64.822-144.498 144.498s64.822 144.498 144.498 144.498 144.498-64.822 144.498-144.498-64.822-144.498-144.498-144.498zM846.874 52.307c-34.316 0-62.134-27.818-62.134-62.134s27.818-62.134 62.134-62.134c34.316 0 62.134 27.818 62.134 62.134v0c-0.041 34.305-27.831 62.106-62.129 62.163h-0.006zM275.991-154.325c-79.676 0-144.498 64.822-144.498 144.498s64.822 144.498 144.498 144.498 144.498-64.822 144.498-144.498-64.822-144.498-144.498-144.498zM275.991 52.307c-34.316 0-62.134-27.818-62.134-62.134s27.818-62.134 62.134-62.134c34.316 0 62.134 27.818 62.134 62.134v0c-0.041 34.305-27.831 62.106-62.129 62.163h-0.006z" />
<glyph unicode="&#xf109;" glyph-name="basket" d="M890.657-117.363h-757.307c0 0-0.001 0-0.002 0-15.203 0-27.846 10.964-30.452 25.417l-0.028 0.188-101.3 563.131c-0.295 1.605-0.464 3.453-0.464 5.339 0 17.090 13.854 30.944 30.944 30.944 0.001 0 0.001 0 0.002 0h959.929c17.088-0.003 30.939-13.856 30.939-30.944 0-1.887-0.169-3.734-0.492-5.527l0.028 0.188-101.3-563.131c-2.634-14.641-15.277-25.605-30.48-25.605-0.006 0-0.011 0-0.017 0h0.001zM230.691 0.143h562.603c15.203 0.002 27.845 10.965 30.454 25.417l0.028 0.188 57.142 328.119c0.295 1.605 0.464 3.453 0.464 5.339 0 17.088-13.851 30.941-30.938 30.944h-676.894c-0.005 0-0.010 0-0.016 0-17.090 0-30.944-13.854-30.944-30.944 0-1.887 0.169-3.734 0.492-5.527l-0.028 0.188 57.149-328.119c2.634-14.641 15.277-25.605 30.48-25.605 0.003 0 0.006 0 0.009 0h-0.001zM692.124 314.593c27.664 0 50.090-22.426 50.090-50.090v-138.711c0-27.664-22.426-50.090-50.090-50.090s-50.090 22.426-50.090 50.090v138.711c0 27.664 22.426 50.090 50.090 50.090zM331.883 314.593c27.664 0 50.090-22.426 50.090-50.090v-138.711c0-27.664-22.426-50.090-50.090-50.090s-50.090 22.426-50.090 50.090v138.711c0 27.664 22.426 50.090 50.090 50.090zM512 314.593c27.664 0 50.090-22.426 50.090-50.090v-138.711c0-27.664-22.426-50.090-50.090-50.090s-50.090 22.426-50.090 50.090v138.711c0 27.664 22.426 50.090 50.090 50.090zM102.428 506.743l267.945 267.945c19.561 19.561 51.277 19.561 70.838 0s19.561-51.277 0-70.838l-267.945-267.945c-19.561-19.561-51.277-19.561-70.838 0s-19.561 51.277 0 70.838zM582.876 774.695c19.561 19.561 51.277 19.561 70.838 0l267.945-267.945c19.561-19.561 19.561-51.277 0-70.838s-51.277-19.561-70.838 0l-267.945 267.945c-19.561 19.561-19.561 51.277 0 70.838z" />
<glyph unicode="&#xf10a;" glyph-name="caret-up" d="M928.956 195.808l-372.083 372.083c-11.477 11.477-27.332 18.575-44.845 18.575s-33.368-7.099-44.845-18.575l-372.083-372.083c-39.954-39.954-11.654-108.265 44.845-108.265h744.165c56.506 0 84.799 68.311 44.845 108.265z" />
<glyph unicode="&#xf10b;" glyph-name="caret-down" d="M95.044 477.211l372.083-372.083c11.477-11.477 27.332-18.575 44.845-18.575s33.368 7.099 44.845 18.575l372.083 372.083c39.954 39.954 11.661 108.265-44.845 108.265h-744.165c-56.499 0-84.799-68.311-44.845-108.265z" />
<glyph unicode="&#xf10c;" glyph-name="caret-right" d="M370.789-80.956l372.083 372.083c11.477 11.477 18.575 27.332 18.575 44.845s-7.099 33.368-18.575 44.845l-372.083 372.083c-39.954 39.954-108.265 11.654-108.265-44.845v-744.165c0-56.506 68.311-84.799 108.265-44.845z" />
<glyph unicode="&#xf10d;" glyph-name="caret-left" d="M653.211 752.956l-372.083-372.083c-11.477-11.477-18.575-27.332-18.575-44.845s7.099-33.368 18.575-44.845l372.083-372.083c39.954-39.954 108.265-11.661 108.265 44.845v744.165c0.029 56.499-68.311 84.799-108.265 44.845z" />
<glyph unicode="&#xf10e;" glyph-name="facebook" d="M967.523 848.043h-911.039c-0.002 0-0.005 0-0.007 0-31.215 0-56.52-25.305-56.52-56.52v0-911.060c0-31.215 25.305-56.52 56.52-56.52 0.003 0 0.005 0 0.008 0h490.441v396.597h-133.43v154.555h133.43v113.98c0 132.266 80.818 204.313 198.815 204.313 56.52 0 105.093-4.205 119.254-6.083v-138.256l-81.836-0.036c-64.172 0-76.562-30.467-76.562-75.262v-98.656h153.045l-19.962-154.555h-133.083v-396.582h260.964c31.214 0.004 56.516 25.307 56.52 56.52v0 911.046c0 31.215-25.305 56.52-56.52 56.52-0.013 0-0.025 0-0.038 0h0.002z" />
<glyph unicode="&#xf10f;" glyph-name="twitter" d="M322.476-69.649c385.311 0 596.055 319.218 596.055 596.055q0 13.597-0.6 27.079c41.145 30 75.819 65.934 103.54 106.953l0.961 1.508c-35.040-15.975-75.686-27.596-118.314-32.803l-2.016-0.201c43.309 26.241 75.873 66.509 91.692 114.395l0.425 1.486c-38.287-23.119-82.846-40.759-130.313-50.392l-2.697-0.457c-38.279 40.783-92.528 66.187-152.71 66.187-0.070 0-0.139 0-0.209 0h0.011c-115.692 0-209.522-93.823-209.522-209.472 0-0.119 0-0.261 0-0.402 0-16.796 1.983-33.128 5.728-48.776l-0.287 1.422c-174.12 8.749-328.48 92.11-431.789 218.857-17.836-30.187-28.373-66.52-28.373-105.315 0-72.383 36.684-136.197 92.474-173.866l0.743-0.473c-34.995 1.104-67.525 10.685-95.906 26.744l1.035-0.539c-0.051-0.874-0.051-1.748-0.051-2.666 0-101.467 72.249-186.164 168.066-205.375-16.514-4.687-35.479-7.382-55.074-7.382-13.982 0-27.644 1.372-40.858 3.989l1.329-0.219c26.667-83.224 103.995-143.776 195.701-145.495-70.713-55.887-161.157-89.647-259.486-89.647-0.243 0-0.485 0-0.728 0.001h0.038c-0.104 0-0.227 0-0.349 0-17.487 0-34.73 1.050-51.667 3.090l2.042-0.2c90.604-59.001 201.478-94.090 320.546-94.090 0.198 0 0.397 0 0.595 0h-0.030z" />
<glyph unicode="&#xf110;" glyph-name="google" d="M512 847.646c-282.559 0-511.646-229.073-511.646-511.646s229.087-511.646 511.646-511.646 511.646 229.087 511.646 511.646-229.087 511.646-511.646 511.646zM387.631 161.909c-1.001-0.021-2.182-0.033-3.365-0.033-96.164 0-174.12 77.956-174.12 174.12s77.956 174.12 174.12 174.12c1.183 0 2.364-0.012 3.541-0.035l-0.176 0.003c47.005 0 86.309-17.152 116.624-45.517l-47.215-45.517c-12.954 12.449-35.561 26.877-69.41 26.877-59.418 0-107.926-49.259-107.926-109.941s48.508-109.927 107.926-109.927c68.911 0 94.805 49.512 98.764 75.096h-98.764v59.699h164.388c1.729-8.667 2.727-18.64 2.745-28.842v-0.015c0-99.472-66.664-170.089-167.134-170.089zM810.461 311.139h-74.612v-74.612h-49.758v74.612h-74.619v49.715h74.619v74.604h49.758v-74.604h74.612z" />
<glyph unicode="&#xf111;" glyph-name="youtube" d="M1002.918 582.629c-12.182 44.256-46.331 78.408-89.684 90.381l-0.901 0.212c-79.907 21.407-400.332 21.407-400.332 21.407s-320.417 0-400.325-21.407c-44.257-12.185-78.409-46.336-90.381-89.692l-0.212-0.902c-21.415-79.907-21.415-246.629-21.415-246.629s0-166.722 21.415-246.629c12.185-44.257 46.336-78.409 89.692-90.381l0.902-0.212c79.907-21.378 400.325-21.378 400.325-21.378s320.424 0 400.332 21.407c44.252 12.183 78.4 46.328 90.373 89.677l0.212 0.901c21.415 79.907 21.415 246.629 21.415 246.629s0 166.707-21.415 246.615zM409.536 182.297v307.398l266.202-153.703z" />
<glyph unicode="&#xf112;" glyph-name="pinterest" d="M512 847.357c-282.414 0-511.357-228.921-511.357-511.357 0-216.646 134.766-401.661 325.012-476.121-4.479 40.459-8.518 102.492 1.77 146.666 9.277 39.91 59.967 254.179 59.967 254.179s-15.31 30.583-15.31 75.898c0 71.079 41.218 124.182 92.529 124.182 43.61 0 64.692-32.75 64.692-72.040 0-43.855-27.924-109.443-42.345-170.24-12.073-50.899 25.504-92.428 75.717-92.428 90.882 0 160.711 95.838 160.711 234.166 0 122.426-87.927 208.034-213.561 208.034-145.488 0-230.901-109.096-230.901-221.891 0-43.949 16.935-91.099 38.054-116.689 4.183-5.057 4.79-9.53 3.562-14.688-3.894-16.148-12.528-50.892-14.211-57.965-2.247-9.392-7.406-11.365-17.101-6.871-63.883 29.752-103.815 123.098-103.815 198.129 0 161.296 117.21 309.443 337.873 309.443 177.379 0 315.251-126.436 315.251-295.34 0-176.23-111.112-318.062-265.335-318.062-51.831 0-100.542 26.891-117.21 58.724 0 0-25.656-97.666-31.855-121.559-11.56-44.44-42.721-100.123-63.579-134.080 45.152-14.465 97.091-22.802 150.978-22.802 0.152 0 0.305 0 0.457 0h-0.023c282.4 0 511.357 228.957 511.357 511.357s-228.928 511.357-511.328 511.357z" />
<glyph unicode="&#xf113;" glyph-name="linkedin" d="M948.052 847.783h-872.32c-41.652 0-75.5-33.018-75.5-73.802v-875.904c0-40.763 33.849-73.86 75.5-73.86h872.32c41.731 0 75.717 33.097 75.717 73.86v875.904c0 40.785-33.957 73.802-75.717 73.802zM303.851-24.407h-151.961v488.461h151.961zM227.917 530.791c-0.017 0-0.037 0-0.058 0-48.625 0-88.043 39.418-88.043 88.043s39.418 88.043 88.043 88.043c48.625 0 88.043-39.418 88.043-88.043v0c0-0.013 0-0.028 0-0.043 0-48.596-39.39-87.991-87.984-87.999h-0.001zM872.443-24.407h-151.795v237.54c0 56.643-0.968 129.514-78.881 129.514-78.997 0-91.034-61.737-91.034-125.46v-241.594h-151.643v488.461h145.524v-66.773h2.081c20.23 38.4 69.778 78.896 143.631 78.896 153.717 0 182.118-101.149 182.118-232.692z" />
<glyph unicode="&#xf114;" glyph-name="vimeo" d="M921.695 848.123h-819.391c-56.569 0-102.427-45.858-102.427-102.427v0-819.391c0-56.569 45.858-102.427 102.427-102.427h819.391c56.569 0 102.427 45.858 102.427 102.427v0 819.391c0 56.569-45.858 102.427-102.427 102.427v0zM861.729 507.982q-4.956-108.063-150.95-295.896-150.95-196.134-255.415-196.163-64.742 0-109.493 119.464-29.882 109.522-59.764 219.052-33.235 119.413-71.317 119.471-8.316 0-58.095-34.853l-34.788 44.809q54.794 48.125 108.012 96.308 73.073 63.124 109.688 66.469 86.388 8.316 106.351-118.098 21.581-136.399 29.926-169.612 24.933-113.171 54.844-113.135 23.214 0 69.793 73.427t49.852 111.74q6.647 63.341-49.852 63.391-26.58 0-54.794-12.131 54.584 178.701 208.46 173.687 114.088-3.323 107.535-147.93z" />
<glyph unicode="&#xf115;" glyph-name="soundcloud" d="M299.4 102.159h-42.519v343.053c13.092 9.826 27.166 18.243 42.519 24.066zM426.963 102.159h42.519v392.204c-9.739-11.264-18.835-23.3-26.407-36.435l-16.083 7.825zM341.919 102.159h42.519v376.222c-21.595 3.36-26.486 2.124-42.519 0.419zM171.837 102.159h42.519v298.49c-13.265-19.507-23.597-41.283-29.42-65.263l-13.099 7.738zM44.281 325.408c-26.184-23.969-42.542-58.3-42.542-96.452s16.358-72.484 42.443-96.363l0.099-0.089zM847.019 353.939c-8.67 120.656-102.218 215.96-217.578 215.96-43.458 0-83.505-13.951-117.441-37.295v-430.431h386.467c68.333 0 123.777 59.244 123.777 132.071 0 94.928-92.183 160.371-175.226 119.681zM129.326 355.067c-12.839 1.026-22.397 1.279-42.519-5.187v-241.897c18.965-6.076 27.043-5.867 42.519-5.867z" />
<glyph unicode="&#xf116;" glyph-name="yelp" d="M226.862 366.735l197.746-96.424c38.032-18.554 32.158-74.482-8.908-84.719l-213.402-53.219c-3.279-0.846-7.042-1.332-10.92-1.332-23.298 0-42.499 17.54-45.118 40.135l-0.020 0.211c-1.632 13.403-2.563 28.922-2.563 44.657 0 44.565 7.469 87.386 21.224 127.279l-0.823-2.744c8.67 25.865 38.22 38.133 62.784 26.154zM306.047-40.302l147.164 163.463c28.314 31.45 80.457 10.382 78.983-31.905l-7.666-219.912c-0.897-24.364-20.864-43.775-45.365-43.775-2.657 0-5.26 0.228-7.791 0.666l0.27-0.039c-59.754 10.301-112.895 32.694-158.901 64.641l1.297-0.852c-11.931 8.289-19.644 21.924-19.644 37.361 0 11.691 4.424 22.348 11.688 30.39l-0.035-0.040zM654.981 177.226l209.19-67.979c18.346-6.092 31.344-23.097 31.344-43.139 0-7.085-1.624-13.79-4.521-19.764l0.118 0.27c-25.704-53.123-60.971-97.808-103.957-133.523l-0.645-0.521c-7.785-6.465-17.883-10.388-28.897-10.388-16.144 0-30.32 8.429-38.366 21.126l-0.11 0.186-116.581 186.612c-22.441 35.886 12.181 80.204 52.424 67.119zM867.711 310.677l-211.458-60.631c-40.691-11.661-73.73 33.834-50.083 68.918l123.040 182.378c15.281 22.643 47.027 26.812 67.509 8.742 42.29-37.401 76.149-83.298 99.059-135.119l0.984-2.494c2.391-5.346 3.784-11.586 3.784-18.151 0-20.602-13.716-38-32.514-43.562l-0.321-0.082zM373.607 823.797c-41.96-11.345-78.082-25.012-112.467-41.698l3.769 1.65c-15.343-7.478-25.728-22.958-25.728-40.863 0-8.366 2.267-16.203 6.221-22.929l-0.116 0.213 206.676-357.951c23.185-40.192 84.582-23.712 84.582 22.665v413.351c0 0.011 0 0.025 0 0.038 0 25.031-20.291 45.322-45.322 45.322-1.215 0-2.42-0.048-3.611-0.142l0.157 0.010c-42.206-3.408-81.103-10.377-118.605-20.711l4.444 1.044z" />
<glyph unicode="&#xf117;" glyph-name="instagram" d="M512 755.984c136.796 0 153.016-0.513 207.066-2.991 138.841-6.315 203.699-72.191 210.013-210.013 2.478-54.006 2.948-70.233 2.948-207.022s-0.513-153.016-2.948-207.022c-6.358-137.692-71.042-203.699-210.013-210.013-54.050-2.478-70.19-2.991-207.066-2.991s-153.016 0.513-207.022 2.991c-139.188 6.358-203.692 72.538-210.013 210.057-2.478 54.006-2.991 70.183-2.991 207.022s0.556 152.973 2.991 207.022c6.358 137.779 71.042 203.692 210.013 210.013 54.050 2.435 70.233 2.948 207.022 2.948zM512 848.332c-139.137 0-156.535-0.6-211.206-3.078-186.063-8.54-289.466-111.769-298.006-298.006-2.521-54.714-3.121-72.112-3.121-211.249s0.6-156.607 3.078-211.249c8.54-186.063 111.769-289.473 298.006-298.006 54.693-2.478 72.112-3.078 211.249-3.078s156.607 0.6 211.249 3.078c185.897 8.533 289.552 111.769 297.969 298.006 2.514 54.642 3.114 72.105 3.114 211.249s-0.564 156.535-3.078 211.206c-8.366 185.918-111.726 289.466-297.962 298.006-54.685 2.521-72.148 3.121-211.292 3.121zM512 599.073c-145.286 0-263.080-117.766-263.080-263.080s117.766-263.124 263.080-263.124 263.080 117.766 263.080 263.124-117.788 263.088-263.080 263.088zM512 165.218c-94.314 0-170.775 76.418-170.775 170.775s76.461 170.782 170.775 170.782 170.753-76.461 170.753-170.775-76.439-170.753-170.753-170.753zM785.499 670.925c-0.019 0-0.042 0-0.065 0-33.953 0-61.477-27.524-61.477-61.477s27.524-61.477 61.477-61.477c33.953 0 61.477 27.524 61.477 61.477v0c-0.008 33.928-27.489 61.435-61.407 61.484h-0.005z" />
<glyph unicode="&#xf118;" glyph-name="search" d="M1013.74-83.231l-290.517 290.517c49.347 66.615 78.464 148.98 78.464 238.208 0 221.23-179.397 400.627-400.627 400.627s-400.627-179.397-400.627-400.627 179.397-400.627 400.627-400.627c90.674 0 174.339 30.128 241.46 80.92l290.084-290.084c13.077-13.077 34.391-13.077 47.468 0l33.596 33.596c13.15 13.077 13.15 34.319 0.072 47.468zM511.964 182.794c-35.041-14.811-72.395-22.325-110.904-22.325s-75.863 7.514-110.904 22.325c-33.958 14.378-64.447 34.897-90.602 61.124-26.227 26.227-46.746 56.716-61.124 90.602-14.811 35.041-22.325 72.395-22.325 110.904s7.514 75.863 22.325 110.904c14.378 33.958 34.897 64.447 61.124 90.602 26.227 26.227 56.716 46.746 90.602 61.124 35.041 14.811 72.395 22.325 110.904 22.325s75.863-7.514 110.904-22.325c33.958-14.378 64.447-34.897 90.602-61.124 26.227-26.227 46.746-56.716 61.124-90.602 14.811-35.041 22.325-72.395 22.325-110.904s-7.514-75.863-22.325-110.904c-14.378-33.958-34.897-64.447-61.124-90.602-26.155-26.155-56.644-46.746-90.602-61.124z" />
<glyph unicode="&#xf119;" glyph-name="bag" d="M813.806 546.844l81.107-666.136h-765.84l81.1 666.136h603.612zM511.978 911.702c-140.322 0-254.259-112.961-255.827-252.872h-90.456c-31.476-0.007-57.449-23.562-61.258-54.007l-0.031-0.303-93.339-766.598c-0.288-2.241-0.453-4.833-0.453-7.463 0-34.096 27.641-61.737 61.737-61.737 0.002 0 0.003 0 0.005 0h879.27c0.001 0 0.003 0 0.005 0 34.096 0 61.737 27.641 61.737 61.737 0 2.63-0.165 5.223-0.484 7.766l0.031-0.303-93.324 766.598c-3.836 30.744-29.803 54.299-61.273 54.31h-90.493c-1.568 139.946-115.505 252.872-255.827 252.872zM366.483 658.83c1.77 79.055 66.39 142.605 145.871 142.605s144.101-63.55 145.835-142.605z" />
</font>
</defs>
</svg>
